<?xml version="1.0" encoding="UTF-8"?>
<svg version="1.1" xmlns="http://www.w3.org/2000/svg" width="313" height="305">
<path d="M0 0 C103.29 0 206.58 0 313 0 C313 100.65 313 201.3 313 305 C209.71 305 106.42 305 0 305 C0 204.35 0 103.7 0 0 Z " fill="#FDFEFE" transform="translate(0,0)"/>
<path d="M0 0 C1.34974663 -0.00614822 1.34974663 -0.00614822 2.72676086 -0.01242065 C5.71891976 -0.02209452 8.71095247 -0.02192185 11.703125 -0.01953125 C13.25264359 -0.02012039 13.25264359 -0.02012039 14.83346558 -0.02072144 C33.23998786 -0.01246983 51.62146221 0.45571489 70.015625 1.10546875 C71.25429321 1.1489444 72.49296143 1.19242004 73.76916504 1.23721313 C77.34237662 1.36483632 80.91535828 1.49736437 84.48828125 1.6328125 C85.5272908 1.67141388 86.56630035 1.71001526 87.63679504 1.74978638 C95.76117599 2.072166 103.83133003 2.62651575 111.953125 3.16796875 C111.953125 29.56796875 111.953125 55.96796875 111.953125 83.16796875 C107.69942446 82.10454361 104.65169962 80.30448313 101.015625 77.98046875 C100.32686279 77.54557129 99.63810059 77.11067383 98.9284668 76.66259766 C92.05329839 72.29184094 85.29404423 67.74715842 78.53027344 63.20678711 C72.85295472 59.40443663 67.11928184 55.76558038 61.26953125 52.234375 C56.25353086 49.10897546 51.36485551 45.79473984 46.48168945 42.46630859 C42.07743977 39.48916469 37.59987511 36.81480219 32.93115234 34.27368164 C30.63014344 32.98742277 28.51083389 31.54548063 26.390625 29.98046875 C19.43037048 25.10029029 12.16167347 20.67331154 4.953125 16.16796875 C4.953125 46.19796875 4.953125 76.22796875 4.953125 107.16796875 C40.263125 107.16796875 75.573125 107.16796875 111.953125 107.16796875 C111.953125 145.11796875 111.953125 183.06796875 111.953125 222.16796875 C107.4211518 221.03497545 104.79445535 218.91987713 101.265625 216.04296875 C100.64494141 215.55030518 100.02425781 215.0576416 99.38476562 214.55004883 C96.62249977 212.35393274 93.9087699 210.12937405 91.24609375 207.8125 C90.11107422 206.84376953 90.11107422 206.84376953 88.953125 205.85546875 C88.31375 205.28183594 87.674375 204.70820313 87.015625 204.1171875 C84.89372932 202.89112231 84.89372932 202.89112231 82.1796875 203.76171875 C78.48511602 205.37194361 74.90603866 207.12839261 71.328125 208.98046875 C61.32412458 214.02117356 51.91300226 218.19111161 40.890625 220.48046875 C40.07561523 220.65223633 39.26060547 220.82400391 38.42089844 221.00097656 C31.99018555 222.2335942 26.7409772 222.16796875 19.953125 222.16796875 C19.953125 190.48796875 19.953125 158.80796875 19.953125 126.16796875 C15.663125 126.16796875 11.373125 126.16796875 6.953125 126.16796875 C6.953125 157.84796875 6.953125 189.52796875 6.953125 222.16796875 C-24.19217012 222.16796875 -54.37022532 217.2221302 -77.796875 194.73046875 C-85.63147815 186.43173034 -91.43530807 177.0410337 -97.046875 167.16796875 C-97.84544922 165.76417969 -97.84544922 165.76417969 -98.66015625 164.33203125 C-101.22246055 159.53999311 -102.69886001 155.14890832 -103.5859375 149.79296875 C-104.09224056 146.90961571 -104.80229959 144.12382971 -105.546875 141.29296875 C-106.05305655 139.25282586 -106.5532306 137.21118141 -107.046875 135.16796875 C-107.25699219 134.31460938 -107.46710938 133.46125 -107.68359375 132.58203125 C-113.76882901 103.14848196 -105.89943641 70.32085036 -90.1171875 45.08203125 C-86.82175981 40.20042259 -86.82175981 40.20042259 -85.046875 38.16796875 C-84.386875 38.16796875 -83.726875 38.16796875 -83.046875 38.16796875 C-82.79550781 37.59433594 -82.54414062 37.02070312 -82.28515625 36.4296875 C-73.01024835 19.48908284 -48.72650565 9.44974817 -31.046875 4.16796875 C-25.76563525 2.86837188 -20.42034057 1.99603052 -15.046875 1.16796875 C-14.1707959 0.99523438 -13.2947168 0.8225 -12.39208984 0.64453125 C-8.23794045 0.05272716 -4.19060551 0.00601557 0 0 Z " fill="#489DDB" transform="translate(153.046875,36.83203125)"/>
<path d="M0 0 C1.42475594 -0.00980652 1.42475594 -0.00980652 2.87829483 -0.01981115 C6.0516705 -0.03434319 9.2231918 -0.00609186 12.39645386 0.02209473 C14.67506219 0.02051255 16.95366999 0.01631672 19.23226929 0.00970459 C25.41406944 -0.00055782 31.59520299 0.02649431 37.776896 0.06075859 C44.24478175 0.09084054 50.71265903 0.08848274 57.18060303 0.09008789 C68.04011735 0.09747119 78.89934414 0.12721399 89.75875854 0.17248535 C100.92935278 0.21902007 112.09978692 0.24733822 123.27047729 0.2545166 C124.30295264 0.2551849 124.30295264 0.2551849 125.35628606 0.25586671 C126.74294643 0.25675192 128.1296068 0.25763597 129.51626717 0.25851884 C130.20031644 0.25895798 130.88436572 0.25939711 131.58914375 0.25984955 C132.27148034 0.26028152 132.95381693 0.26071349 133.65683038 0.26115856 C144.95146898 0.26900937 156.24607602 0.2944042 167.54068518 0.32054329 C171.39515552 0.32874194 175.24962429 0.33459281 179.10409927 0.34013367 C185.15667006 0.34991829 191.20911741 0.37032273 197.2616272 0.3990097 C199.48485067 0.40805649 201.70809074 0.41373323 203.93133163 0.41582489 C206.96183214 0.41931601 209.99202385 0.43508047 213.02246094 0.45410156 C214.34750238 0.45150212 214.34750238 0.45150212 215.69931233 0.44885015 C220.88612608 0.49781463 225.18123772 0.66844584 229.14987183 4.39123535 C229.63971558 4.99967285 230.12955933 5.60811035 230.63424683 6.23498535 C231.13440308 6.84342285 231.63455933 7.45186035 232.14987183 8.07873535 C235.09000636 12.02372599 234.52615288 16.02236339 234.51795959 20.74946594 C234.52022515 21.69503111 234.52249071 22.64059628 234.52482492 23.61481494 C234.53118663 26.8030773 234.53033416 29.9912974 234.5295105 33.17956543 C234.53250066 35.45743363 234.53590286 37.73530132 234.53968811 40.01316833 C234.54854747 46.21566986 234.55086705 52.4181576 234.5515039 58.62066483 C234.55245154 63.79226347 234.55612823 68.96385887 234.55967599 74.13545626 C234.56736201 85.63689232 234.57034395 97.13832049 234.56967064 108.63975874 C234.56963068 109.33029729 234.56959073 110.02083584 234.56954956 110.7322998 C234.56950868 111.42367988 234.5694678 112.11505995 234.56942568 112.82739093 C234.56901929 124.03039075 234.57858599 135.23335695 234.59268793 146.43634705 C234.60704714 157.93431439 234.61377514 169.43226098 234.61309415 180.93023795 C234.61283878 187.38751108 234.6157114 193.8447462 234.6262722 200.30201149 C234.63593266 206.37499791 234.63604647 212.44790981 234.62875557 218.52089882 C234.62770713 220.75219328 234.63008793 222.98349233 234.63611603 225.2147789 C234.64380231 228.25645899 234.63921338 231.29787956 234.63148499 234.33955383 C234.63662855 235.22632539 234.64177211 236.11309695 234.64707154 237.02674037 C234.61778879 242.22814396 234.46255772 246.51942751 230.72799683 250.50061035 C230.11955933 250.9904541 229.51112183 251.48029785 228.88424683 251.98498535 C228.27580933 252.4851416 227.66737183 252.98529785 227.04049683 253.50061035 C223.10579834 256.43307432 219.12953093 255.87691259 214.41445923 255.86869812 C213.47368318 255.87096368 212.53290713 255.87322923 211.56362271 255.87556344 C208.3915138 255.88192511 205.21944737 255.88107269 202.04733276 255.88024902 C199.78093917 255.88323921 197.51454609 255.88664141 195.24815369 255.89042664 C189.07657576 255.89928626 182.90501168 255.9016056 176.733428 255.90224242 C171.5867769 255.90319015 166.44012906 255.90686696 161.2934792 255.91041452 C149.8462516 255.91810079 138.39903305 255.92108247 126.95180354 255.92040917 C125.92087029 255.92034923 125.92087029 255.92034923 124.86911011 255.92028809 C123.83691939 255.92022676 123.83691939 255.92022676 122.78387633 255.92016421 C111.63651747 255.91975792 100.48919242 255.9293219 89.34184334 255.94342645 C77.89924121 255.95779041 66.45666241 255.96451345 55.01404977 255.96383268 C48.58860275 255.96357741 42.16319395 255.96644424 35.73775482 255.97701073 C29.69349233 255.98667823 23.6493047 255.98678011 17.6050396 255.97949409 C15.38545307 255.9784465 13.16586192 255.98082148 10.94628334 255.98685455 C7.91809002 255.99455281 4.89015658 255.98994387 1.86196899 255.98222351 C0.98200123 255.98736707 0.10203346 255.99251064 -0.8046 255.99781007 C-11.38072556 255.93815984 -11.38072556 255.93815984 -15.26028442 252.1138916 C-15.64571411 251.51447754 -16.0311438 250.91506348 -16.42825317 250.29748535 C-17.02573364 249.40223145 -17.02573364 249.40223145 -17.63528442 248.4888916 C-20.1197294 244.04460557 -19.76101919 239.57760248 -19.75619507 234.64494324 C-19.75916619 233.70331276 -19.76213731 232.76168229 -19.76519847 231.79151756 C-19.77390025 228.6225181 -19.77539497 225.45355636 -19.77688599 222.2845459 C-19.78151309 220.01800455 -19.78653761 217.75146397 -19.79193115 215.48492432 C-19.80506706 209.31754071 -19.81150238 203.150168 -19.81594181 196.98277259 C-19.81887048 193.13182729 -19.82297488 189.28088498 -19.82744598 185.42994118 C-19.83955606 174.76778978 -19.84993782 164.10564204 -19.85332108 153.44348431 C-19.85354064 152.76108084 -19.85376021 152.07867738 -19.85398643 151.37559502 C-19.8542047 150.69155909 -19.85442298 150.00752316 -19.85464787 149.30275887 C-19.85509134 147.91664231 -19.8555379 146.53052574 -19.85598755 145.14440918 C-19.85620898 144.45684753 -19.85643041 143.76928589 -19.85665855 143.06088904 C-19.86060652 131.92004459 -19.87806062 120.77926554 -19.90134707 109.63844635 C-19.92506196 98.20033027 -19.93726501 86.76226171 -19.93868899 75.32411796 C-19.93973838 68.90201632 -19.94567466 62.48000693 -19.96350861 56.05792809 C-19.97995547 50.01773112 -19.9821612 43.97769608 -19.9733696 37.93748474 C-19.97259742 35.71950663 -19.97696559 33.50151993 -19.98682785 31.28356361 C-19.99949514 28.25750776 -19.99369874 25.23202991 -19.98324585 22.20597839 C-19.99130225 21.32669275 -19.99935866 20.4474071 -20.0076592 19.54147643 C-19.95259008 12.73279609 -18.44995718 8.29517228 -13.52923775 3.40592194 C-9.21515157 -0.04731455 -5.36784984 -0.09840845 0 0 Z M78.38424683 18.73498535 C76.64170906 19.06859593 74.89699245 19.39111655 73.14987183 19.6998291 C52.7004466 23.76884739 36.04895077 34.33004267 21.38424683 48.73498535 C20.77967651 49.29443848 20.1751062 49.8538916 19.55221558 50.43029785 C18.16191667 51.69149033 18.16191667 51.69149033 18.38424683 53.73498535 C17.72424683 53.73498535 17.06424683 53.73498535 16.38424683 53.73498535 C14.66062123 56.01413488 13.07245249 58.2866598 11.50924683 60.67248535 C11.07483276 61.31250488 10.6404187 61.95252441 10.19284058 62.61193848 C-7.40750962 89.17102548 -11.0293419 123.05238425 -5.21511841 153.69250488 C-4.52578451 157.06123861 -3.82428161 160.21366425 -2.54544067 163.4107666 C-1.61575317 165.73498535 -1.61575317 165.73498535 -1.27981567 168.9654541 C-0.41097353 173.89741099 1.62458144 177.68270379 4.00924683 182.04748535 C4.46509155 182.89198242 4.92093628 183.73647949 5.39059448 184.60656738 C8.6819114 190.62381449 12.03641052 196.40932241 16.38424683 201.73498535 C16.78804565 202.23159668 17.19184448 202.72820801 17.60787964 203.23986816 C35.26617492 224.58604528 61.20867724 235.01742839 88.38424683 237.73498535 C94.98424683 237.73498535 101.58424683 237.73498535 108.38424683 237.73498535 C108.38424683 206.05498535 108.38424683 174.37498535 108.38424683 141.73498535 C112.67424683 141.73498535 116.96424683 141.73498535 121.38424683 141.73498535 C121.38424683 173.41498535 121.38424683 205.09498535 121.38424683 237.73498535 C128.74726875 237.73498535 134.95871842 237.62614366 142.00924683 236.17248535 C143.29448242 235.9090332 143.29448242 235.9090332 144.60568237 235.64025879 C157.14190627 232.88300781 168.59560834 227.64767698 179.56515503 221.04846191 C183.82851982 218.59316466 183.82851982 218.59316466 186.45065308 219.2623291 C187.08873901 219.74830566 187.72682495 220.23428223 188.38424683 220.73498535 C189.26338745 221.35631348 190.14252808 221.9776416 191.04830933 222.61779785 C192.0254187 223.35771973 193.00252808 224.0976416 194.00924683 224.85998535 C195.58899292 226.0530127 195.58899292 226.0530127 197.20065308 227.2701416 C200.9923986 230.17864158 204.67102858 233.22286555 208.32565308 236.3013916 C210.37645904 238.02072287 210.37645904 238.02072287 213.38424683 237.73498535 C213.38424683 199.78498535 213.38424683 161.83498535 213.38424683 122.73498535 C178.07424683 122.73498535 142.76424683 122.73498535 106.38424683 122.73498535 C106.38424683 92.70498535 106.38424683 62.67498535 106.38424683 31.73498535 C128.38424683 45.73498535 128.38424683 45.73498535 138.38424683 52.73498535 C140.53111048 53.93470327 142.67857977 55.13379668 144.84518433 56.29748535 C149.93696179 59.18021474 154.79699909 62.45485155 159.70016479 65.64465332 C162.06167109 67.17357288 164.44194217 68.67225082 166.82174683 70.17248535 C171.80467736 73.33613479 176.70990929 76.60873951 181.61300659 79.8939209 C186.54149886 83.18979928 191.51132301 86.41578005 196.51168823 89.60144043 C200.61424696 92.21940417 204.63832784 94.93337138 208.61471558 97.7388916 C210.48151978 98.98025296 210.48151978 98.98025296 213.38424683 98.73498535 C213.38424683 72.33498535 213.38424683 45.93498535 213.38424683 18.73498535 C181.62723374 17.06356361 150.04557429 15.67868168 118.27700806 15.50482178 C116.16845157 15.49177254 114.05991825 15.47396118 111.95144653 15.45098877 C100.25748575 15.33230994 89.73691219 15.73416056 78.38424683 18.73498535 Z " fill="#FAFDFD" transform="translate(51.615753173828125,21.2650146484375)"/>
<path d="M0 0 C0 9.57 0 19.14 0 29 C-3.34125 29.9590625 -3.34125 29.9590625 -6.75 30.9375 C-18.56098013 34.6953634 -28.5481579 42.3104707 -35 53 C-36.98 57.95 -36.98 57.95 -39 63 C-25.8 63 -12.6 63 1 63 C1 72.57 1 82.14 1 92 C-11.87 92 -24.74 92 -38 92 C-32.70782951 104.70120918 -27.22599247 115.78179231 -14.0625 121.3125 C-9.40339386 123.07864487 -4.98766657 123.89162965 0 125 C0 134.9 0 144.8 0 155 C-20.01485134 155 -34.97248912 152.34336476 -49.71875 138.34375 C-66.10332999 121.51027741 -71.57007186 98.73835295 -71.42333984 75.78491211 C-71.00168111 62.68337302 -67.80208379 49.7406872 -62 38 C-61.37351562 36.63875 -61.37351562 36.63875 -60.734375 35.25 C-55.25516646 24.1656241 -46.73420968 15.13672742 -36 9 C-34.84564453 8.26330078 -34.84564453 8.26330078 -33.66796875 7.51171875 C-22.76595045 1.33444044 -12.2899993 0 0 0 Z " fill="#FBFDFD" transform="translate(141,70)"/>
<path d="M0 0 C1.42475594 -0.00980652 1.42475594 -0.00980652 2.87829483 -0.01981115 C6.0516705 -0.03434319 9.2231918 -0.00609186 12.39645386 0.02209473 C14.67506219 0.02051255 16.95366999 0.01631672 19.23226929 0.00970459 C25.41406944 -0.00055782 31.59520299 0.02649431 37.776896 0.06075859 C44.24478175 0.09084054 50.71265903 0.08848274 57.18060303 0.09008789 C68.04011735 0.09747119 78.89934414 0.12721399 89.75875854 0.17248535 C100.92935278 0.21902007 112.09978692 0.24733822 123.27047729 0.2545166 C124.30295264 0.2551849 124.30295264 0.2551849 125.35628606 0.25586671 C126.74294643 0.25675192 128.1296068 0.25763597 129.51626717 0.25851884 C130.20031644 0.25895798 130.88436572 0.25939711 131.58914375 0.25984955 C132.27148034 0.26028152 132.95381693 0.26071349 133.65683038 0.26115856 C144.95146898 0.26900937 156.24607602 0.2944042 167.54068518 0.32054329 C171.39515552 0.32874194 175.24962429 0.33459281 179.10409927 0.34013367 C185.15667006 0.34991829 191.20911741 0.37032273 197.2616272 0.3990097 C199.48485067 0.40805649 201.70809074 0.41373323 203.93133163 0.41582489 C206.96183214 0.41931601 209.99202385 0.43508047 213.02246094 0.45410156 C214.34750238 0.45150212 214.34750238 0.45150212 215.69931233 0.44885015 C220.88612608 0.49781463 225.18123772 0.66844584 229.14987183 4.39123535 C229.63971558 4.99967285 230.12955933 5.60811035 230.63424683 6.23498535 C231.13440308 6.84342285 231.63455933 7.45186035 232.14987183 8.07873535 C235.09000636 12.02372599 234.52615288 16.02236339 234.51795959 20.74946594 C234.52022515 21.69503111 234.52249071 22.64059628 234.52482492 23.61481494 C234.53118663 26.8030773 234.53033416 29.9912974 234.5295105 33.17956543 C234.53250066 35.45743363 234.53590286 37.73530132 234.53968811 40.01316833 C234.54854747 46.21566986 234.55086705 52.4181576 234.5515039 58.62066483 C234.55245154 63.79226347 234.55612823 68.96385887 234.55967599 74.13545626 C234.56736201 85.63689232 234.57034395 97.13832049 234.56967064 108.63975874 C234.56963068 109.33029729 234.56959073 110.02083584 234.56954956 110.7322998 C234.56950868 111.42367988 234.5694678 112.11505995 234.56942568 112.82739093 C234.56901929 124.03039075 234.57858599 135.23335695 234.59268793 146.43634705 C234.60704714 157.93431439 234.61377514 169.43226098 234.61309415 180.93023795 C234.61283878 187.38751108 234.6157114 193.8447462 234.6262722 200.30201149 C234.63593266 206.37499791 234.63604647 212.44790981 234.62875557 218.52089882 C234.62770713 220.75219328 234.63008793 222.98349233 234.63611603 225.2147789 C234.64380231 228.25645899 234.63921338 231.29787956 234.63148499 234.33955383 C234.63662855 235.22632539 234.64177211 236.11309695 234.64707154 237.02674037 C234.61778879 242.22814396 234.46255772 246.51942751 230.72799683 250.50061035 C230.11955933 250.9904541 229.51112183 251.48029785 228.88424683 251.98498535 C228.27580933 252.4851416 227.66737183 252.98529785 227.04049683 253.50061035 C223.10579834 256.43307432 219.12953093 255.87691259 214.41445923 255.86869812 C213.47368318 255.87096368 212.53290713 255.87322923 211.56362271 255.87556344 C208.3915138 255.88192511 205.21944737 255.88107269 202.04733276 255.88024902 C199.78093917 255.88323921 197.51454609 255.88664141 195.24815369 255.89042664 C189.07657576 255.89928626 182.90501168 255.9016056 176.733428 255.90224242 C171.5867769 255.90319015 166.44012906 255.90686696 161.2934792 255.91041452 C149.8462516 255.91810079 138.39903305 255.92108247 126.95180354 255.92040917 C125.92087029 255.92034923 125.92087029 255.92034923 124.86911011 255.92028809 C123.83691939 255.92022676 123.83691939 255.92022676 122.78387633 255.92016421 C111.63651747 255.91975792 100.48919242 255.9293219 89.34184334 255.94342645 C77.89924121 255.95779041 66.45666241 255.96451345 55.01404977 255.96383268 C48.58860275 255.96357741 42.16319395 255.96644424 35.73775482 255.97701073 C29.69349233 255.98667823 23.6493047 255.98678011 17.6050396 255.97949409 C15.38545307 255.9784465 13.16586192 255.98082148 10.94628334 255.98685455 C7.91809002 255.99455281 4.89015658 255.98994387 1.86196899 255.98222351 C0.98200123 255.98736707 0.10203346 255.99251064 -0.8046 255.99781007 C-11.38072556 255.93815984 -11.38072556 255.93815984 -15.26028442 252.1138916 C-15.64571411 251.51447754 -16.0311438 250.91506348 -16.42825317 250.29748535 C-17.02573364 249.40223145 -17.02573364 249.40223145 -17.63528442 248.4888916 C-20.1197294 244.04460557 -19.76101919 239.57760248 -19.75619507 234.64494324 C-19.75916619 233.70331276 -19.76213731 232.76168229 -19.76519847 231.79151756 C-19.77390025 228.6225181 -19.77539497 225.45355636 -19.77688599 222.2845459 C-19.78151309 220.01800455 -19.78653761 217.75146397 -19.79193115 215.48492432 C-19.80506706 209.31754071 -19.81150238 203.150168 -19.81594181 196.98277259 C-19.81887048 193.13182729 -19.82297488 189.28088498 -19.82744598 185.42994118 C-19.83955606 174.76778978 -19.84993782 164.10564204 -19.85332108 153.44348431 C-19.85354064 152.76108084 -19.85376021 152.07867738 -19.85398643 151.37559502 C-19.8542047 150.69155909 -19.85442298 150.00752316 -19.85464787 149.30275887 C-19.85509134 147.91664231 -19.8555379 146.53052574 -19.85598755 145.14440918 C-19.85620898 144.45684753 -19.85643041 143.76928589 -19.85665855 143.06088904 C-19.86060652 131.92004459 -19.87806062 120.77926554 -19.90134707 109.63844635 C-19.92506196 98.20033027 -19.93726501 86.76226171 -19.93868899 75.32411796 C-19.93973838 68.90201632 -19.94567466 62.48000693 -19.96350861 56.05792809 C-19.97995547 50.01773112 -19.9821612 43.97769608 -19.9733696 37.93748474 C-19.97259742 35.71950663 -19.97696559 33.50151993 -19.98682785 31.28356361 C-19.99949514 28.25750776 -19.99369874 25.23202991 -19.98324585 22.20597839 C-19.99130225 21.32669275 -19.99935866 20.4474071 -20.0076592 19.54147643 C-19.95259008 12.73279609 -18.44995718 8.29517228 -13.52923775 3.40592194 C-9.21515157 -0.04731455 -5.36784984 -0.09840845 0 0 Z M-15.61575317 7.73498535 C-18.35993157 12.10791286 -17.90070837 17.09996494 -17.88317871 22.10350037 C-17.88770982 23.05092324 -17.89224094 23.99834612 -17.89690936 24.97447878 C-17.90957604 28.15112617 -17.90793152 31.3276026 -17.90628052 34.50427246 C-17.91226427 36.78096233 -17.91906946 39.05765017 -17.92663574 41.33433533 C-17.9443167 47.52020608 -17.94899196 53.70602151 -17.95026731 59.89191508 C-17.95216556 65.05363315 -17.95952208 70.21533831 -17.9666115 75.37705141 C-17.98196989 86.85707096 -17.98794871 98.33705445 -17.9866008 109.81708162 C-17.98652089 110.50566124 -17.98644098 111.19424086 -17.98635864 111.90368652 C-17.98627688 112.59310778 -17.98619512 113.28252904 -17.98611088 113.99284185 C-17.98529775 125.16915271 -18.00444344 136.34532888 -18.03263538 147.52160078 C-18.06136196 159.00047103 -18.07480954 170.4792483 -18.07344782 181.95816046 C-18.0729374 188.40149404 -18.07866531 194.84467513 -18.09980392 201.28797722 C-18.11913691 207.34630469 -18.11934446 213.40433341 -18.10477066 219.46267128 C-18.10267546 221.68710134 -18.10742557 223.91154986 -18.11949158 226.13594818 C-18.13488876 229.17081441 -18.12567207 232.20464338 -18.11022949 235.23948669 C-18.12566018 236.56220523 -18.12566018 236.56220523 -18.1414026 237.91164535 C-18.06877119 244.36340301 -16.3091421 247.74935368 -11.9461422 252.58575535 C-8.1891296 254.43852394 -4.46130887 254.15054021 -0.32952881 254.12266541 C0.6211232 254.12805094 1.5717752 254.13343648 2.55123484 254.13898522 C5.74488907 254.15332197 8.93813214 254.14614688 12.13180542 254.13903809 C14.41820104 254.14473869 16.7045938 254.15170174 18.99098206 254.15983582 C25.20793279 254.17781742 31.42474276 254.17658931 37.64171171 254.17089343 C42.82823732 254.16780851 48.01473562 254.17388632 53.20125735 254.17993218 C66.13576354 254.19479695 79.07018139 254.19115011 92.00468607 254.17906887 C103.2360315 254.16913865 114.46721214 254.18207239 125.69853215 254.20600306 C137.23161707 254.23039147 148.7646065 254.23960265 160.29771864 254.23335034 C166.77235664 254.22997551 173.2468585 254.23243073 179.72147751 254.24960136 C185.81017353 254.26504285 191.89855449 254.26114572 197.98723793 254.24229622 C200.22294999 254.23860249 202.45868525 254.24174152 204.69437599 254.25218201 C207.74463456 254.26533968 210.79384215 254.25389009 213.84405518 254.2361908 C214.7304406 254.2457958 215.61682603 254.25540081 216.53007162 254.26529688 C221.94433624 254.20058311 225.16500583 253.44935878 229.38424683 249.73498535 C233.14894165 245.33701687 232.80923545 240.84053668 232.77192688 235.32850647 C232.77731242 234.37700004 232.78269796 233.42549361 232.78824669 232.44515365 C232.8025621 229.25460493 232.7954136 226.064469 232.78829956 222.87390137 C232.79400124 220.58735825 232.80096471 218.30081799 232.80909729 216.01428223 C232.82706594 209.80152274 232.82585333 203.58890421 232.82015491 197.37612653 C232.81706847 192.19203608 232.82314942 187.00797291 232.82919365 181.82388633 C232.84405334 168.89616768 232.84041511 155.96853743 232.82833035 143.04082029 C232.81839784 131.81600495 232.83133868 120.59135444 232.85526454 109.36656452 C232.87965263 97.83796799 232.88886434 86.30946697 232.88261181 74.7808432 C232.87923724 68.30957354 232.88169062 61.83844008 232.89886284 55.36718941 C232.91430382 49.28258394 232.91040777 43.19829375 232.89155769 37.11370087 C232.88786398 34.87960051 232.89100293 32.64547695 232.90144348 30.41139793 C232.91460113 27.36338214 232.90315164 24.31641809 232.88545227 21.26844788 C232.89505728 20.38274457 232.90466228 19.49704126 232.91455835 18.58449847 C232.84992118 13.1807042 232.08636562 9.95518299 228.38424683 5.73498535 C225.58701206 4.03632001 223.5089738 3.48421057 220.25435066 3.47771645 C219.4349721 3.47126755 218.61559353 3.46481866 217.77138531 3.45817435 C216.8766475 3.46127155 215.98190968 3.46436876 215.06005859 3.46755981 C214.10532304 3.4630287 213.15058748 3.45849759 212.16692054 3.45382917 C208.95952864 3.44114288 205.75230562 3.44280827 202.54489136 3.44445801 C200.24864482 3.43847542 197.9524003 3.4316705 195.65615845 3.42410278 C189.4123792 3.40640862 183.16865474 3.40174598 176.92485285 3.40047121 C171.71596377 3.39857395 166.5070875 3.39121844 161.29820335 3.38412702 C149.71309942 3.36876377 138.12802681 3.36279027 126.54291417 3.36413772 C125.50023565 3.36425759 125.50023565 3.36425759 124.43649292 3.36437988 C123.74052493 3.36446164 123.04455694 3.36454341 122.32749902 3.36462764 C111.04766066 3.36544059 99.76795583 3.34630073 88.4881561 3.31810315 C76.90536175 3.28937667 65.32263866 3.27592902 53.73980796 3.2772907 C47.23721524 3.27780118 40.7347736 3.27207062 34.23221207 3.2509346 C28.11726521 3.23160167 22.00261433 3.23139404 15.88765717 3.24596786 C13.64226475 3.24806317 11.39685405 3.24331238 9.15149307 3.23124695 C6.08811267 3.21585098 3.02576002 3.22506575 -0.03759766 3.24050903 C-0.92787403 3.23022191 -1.8181504 3.21993478 -2.73540485 3.20933592 C-8.13444811 3.26955731 -11.44451981 3.96788714 -15.61575317 7.73498535 Z " fill="#B2D0DA" transform="translate(51.615753173828125,21.2650146484375)"/>
<path d="M0 0 C2.5575 0.020625 5.115 0.04125 7.75 0.0625 C7.75 5.3425 7.75 10.6225 7.75 16.0625 C5.605 16.145 3.46 16.2275 1.25 16.3125 C-6.17425893 16.84494685 -10.84745842 18.37628296 -16.625 22.9375 C-21.25235749 28.9886598 -20.86589982 36.26618019 -19.9375 43.49609375 C-18.89160183 49.03375103 -17.30093923 53.6587297 -12.703125 57.28125 C-6.39104629 61.05770735 0.56850364 60.7862886 7.75 61.0625 C7.75 66.6725 7.75 72.2825 7.75 78.0625 C-16.98974164 78.61227204 -16.98974164 78.61227204 -27.25 69.0625 C-36.54573021 59.50596774 -37.88710451 49.00269302 -37.95117188 36.12744141 C-37.58550513 25.2099549 -33.09750606 15.98306771 -25.875 7.8125 C-18.66059205 1.47708888 -9.24622249 -0.1053674 0 0 Z " fill="#FAFDFC" transform="translate(228.25,152.9375)"/>
<path d="M0 0 C0.33 0 0.66 0 1 0 C1.00054477 1.16767662 1.00108953 2.33535324 1.00165081 3.538414 C1.01570079 31.26869419 1.05547846 58.99884061 1.12685562 86.72903499 C1.13562217 90.14357495 1.14417201 93.55811541 1.15258789 96.97265625 C1.15426695 97.65241793 1.15594602 98.33217962 1.15767596 99.03254014 C1.1843318 110.03317136 1.19344002 121.03375046 1.19604143 132.03441066 C1.19910296 143.32560204 1.22144423 154.61664449 1.26052457 165.90777826 C1.28186093 172.24842121 1.2944517 178.58880996 1.28615379 184.92948914 C1.278618 190.89839913 1.29441828 196.86679386 1.32806015 202.83560944 C1.33629895 205.0253116 1.33603692 207.21506495 1.32659721 209.40476227 C1.31497234 212.3978485 1.33409913 215.3892469 1.36076355 218.38220215 C1.35009029 219.24603563 1.33941703 220.10986911 1.32842034 220.99987936 C1.42923281 227.07731643 3.03919449 231.33386486 7 236 C11.00406956 238.6693797 14.51613384 238.28353892 19.16596985 238.26742554 C20.11576743 238.27195665 21.06556501 238.27648776 22.04414433 238.28115618 C25.2408228 238.29386106 28.43733222 238.29217589 31.6340332 238.29052734 C33.92028016 238.29650883 36.20652508 238.30331349 38.49276733 238.31088257 C44.71387928 238.32858928 50.93493624 238.33323994 57.15607095 238.33451414 C62.34502725 238.33641049 67.53397067 238.34376506 72.72292203 238.35085833 C84.26395067 238.36622623 95.80494788 238.37219466 107.34598527 238.37084763 C108.03868269 238.37076772 108.73138011 238.3706878 109.44506836 238.37060547 C110.13861123 238.37052371 110.83215411 238.37044195 111.54671343 238.37035771 C122.78458318 238.36954495 134.02231885 238.38867891 145.26014981 238.4168822 C156.79771515 238.4456093 168.33519777 238.45905628 179.87280148 238.45769465 C186.35081712 238.45718414 192.8286811 238.46291636 199.30666542 238.48405075 C205.39943843 238.50338465 211.49191437 238.50359063 217.58469772 238.48901749 C219.82202652 238.48692222 222.05937367 238.4916728 224.29667091 238.5037384 C227.3491584 238.51913501 230.40061453 238.50991915 233.45307922 238.49447632 C234.34014677 238.50476344 235.22721431 238.51505057 236.14116269 238.52564943 C241.54312353 238.4651853 244.83371164 237.76953485 249 234 C252.45361142 229.02716373 252.43124376 224.45616995 252.39872742 218.62271118 C252.40869766 217.21844645 252.40869766 217.21844645 252.41886932 215.78581274 C252.43749988 212.65348423 252.43489395 209.5215377 252.43237305 206.38916016 C252.44139015 204.1419928 252.45171724 201.89483038 252.46325684 199.64767456 C252.49085887 193.54903785 252.50011576 187.45049439 252.50611091 181.3518033 C252.51548618 174.97761107 252.54168891 168.60348872 252.56611633 162.2293396 C252.60484331 151.53131885 252.63318658 140.8333212 252.65356445 130.13525391 C252.67457947 119.1176484 252.7018591 108.10008769 252.73754883 97.08251953 C252.73974765 96.40306088 252.74194648 95.72360223 252.74421193 95.02355392 C252.75528172 91.61480914 252.7664745 88.20606478 252.77772844 84.7973206 C252.87088843 56.53158638 252.94227651 28.26582712 253 0 C253.33 0 253.66 0 254 0 C254.04561642 29.08812937 254.08101483 58.17625526 254.10213066 87.26441325 C254.1046321 90.69784131 254.10722074 94.13126931 254.10986328 97.56469727 C254.1103879 98.2482365 254.11091252 98.93177573 254.11145304 99.63602827 C254.12015777 110.70658802 254.13592811 121.77712702 254.15430559 132.84767445 C254.17300276 144.20545291 254.18396661 155.56321597 254.18817699 166.92101079 C254.19078786 173.30118904 254.19693855 179.6813202 254.21146011 186.06148338 C254.22501141 192.06385018 254.2292276 198.06615039 254.22621536 204.06853104 C254.22676662 206.27402546 254.23075861 208.47952206 254.23841095 210.68500328 C254.24833373 213.69175184 254.24597855 216.69824765 254.24050903 219.70500183 C254.24633472 220.58146478 254.2521604 221.45792774 254.25816262 222.36095017 C254.23263188 227.53911876 254.06082813 231.80307945 250.34375 235.765625 C249.7353125 236.25546875 249.126875 236.7453125 248.5 237.25 C247.8915625 237.75015625 247.283125 238.2503125 246.65625 238.765625 C242.72155152 241.69808896 238.74528411 241.14192724 234.0302124 241.13371277 C233.08943635 241.13597833 232.1486603 241.13824388 231.17937589 241.14057809 C228.00726697 241.14693976 224.83520055 241.14608734 221.66308594 241.14526367 C219.39669235 241.14825386 217.13029926 241.15165606 214.86390686 241.15544128 C208.69232893 241.16430091 202.52076485 241.16662025 196.34918118 241.16725707 C191.20253008 241.16820479 186.05588223 241.17188161 180.90923238 241.17542917 C169.46200478 241.18311544 158.01478622 241.18609712 146.56755671 241.18542381 C145.53662346 241.18536388 145.53662346 241.18536388 144.48486328 241.18530273 C143.45267256 241.18524141 143.45267256 241.18524141 142.3996295 241.18517885 C131.25227064 241.18477257 120.10494559 241.19433655 108.95759651 241.2084411 C97.51499438 241.22280506 86.07241558 241.2295281 74.62980294 241.22884732 C68.20435592 241.22859206 61.77894712 241.23145889 55.353508 241.24202538 C49.3092455 241.25169288 43.26505787 241.25179476 37.22079277 241.24450874 C35.00120624 241.24346115 32.78161509 241.24583613 30.56203651 241.2518692 C27.53384319 241.25956746 24.50590975 241.25495852 21.47772217 241.24723816 C20.5977544 241.25238172 19.71778663 241.25752529 18.81115317 241.26282471 C8.23502761 241.20317448 8.23502761 241.20317448 4.35546875 237.37890625 C3.97003906 236.77949219 3.58460937 236.18007813 3.1875 235.5625 C2.59001953 234.66724609 2.59001953 234.66724609 1.98046875 233.75390625 C-0.50063433 229.31559836 -0.13651343 224.87027551 -0.12025452 219.94551086 C-0.12110894 219.0078141 -0.12196337 218.07011733 -0.12284368 217.10400552 C-0.12449636 213.94863099 -0.11898054 210.79330912 -0.11352539 207.63793945 C-0.11324345 205.38136801 -0.11340139 203.12479648 -0.1139679 200.8682251 C-0.11425559 194.73016076 -0.10836334 188.59211584 -0.10139394 182.45405602 C-0.09515578 176.04384983 -0.09455623 169.63364321 -0.09336853 163.22343445 C-0.09061047 152.46039428 -0.08435815 141.69736262 -0.07543945 130.93432617 C-0.0662622 119.84773799 -0.05918289 108.76115176 -0.05493164 97.67456055 C-0.05466892 96.99132673 -0.05440619 96.30809291 -0.05413551 95.60415504 C-0.05283048 92.17661464 -0.05156677 88.74907422 -0.05032361 85.3215338 C-0.03995478 56.88101761 -0.02226549 28.44050919 0 0 Z " fill="#88ABB6" transform="translate(32,36)"/>
<path d="M0 0 C4.29 0 8.58 0 13 0 C13 31.68 13 63.36 13 96 C12.67 96 12.34 96 12 96 C12 64.65 12 33.3 12 1 C8.37 1 4.74 1 1 1 C1.15774902 2.00643555 1.31549805 3.01287109 1.47802734 4.04980469 C2.36381255 10.753268 2.44318075 17.4976002 2.625 24.25 C2.64712555 25.05070923 2.6692511 25.85141846 2.69204712 26.6763916 C3.10156263 42.3721161 2.96147546 58.05294783 2.6875 73.75 C2.6619101 75.46684998 2.6619101 75.46684998 2.63580322 77.21838379 C2.5847196 80.47404296 2.51953992 83.72908094 2.44921875 86.984375 C2.43448013 87.9690979 2.41974152 88.9538208 2.40455627 89.96838379 C2.38150925 90.867948 2.35846222 91.76751221 2.3347168 92.69433594 C2.31020699 93.87476471 2.31020699 93.87476471 2.28520203 95.07904053 C2 97 2 97 0 99 C-7.03562224 100.4929046 -13.61067364 99.60157284 -20.6875 98.6875 C-21.80189453 98.55666016 -22.91628906 98.42582031 -24.06445312 98.29101562 C-29.04961942 97.67272358 -33.3738512 97.03693749 -38 95 C-38 94.34 -38 93.68 -38 93 C-36.93265625 93.13277344 -35.8653125 93.26554687 -34.765625 93.40234375 C-33.26045856 93.58108227 -31.75524762 93.75944638 -30.25 93.9375 C-29.5590625 94.02451172 -28.868125 94.11152344 -28.15625 94.20117188 C-18.76612828 95.29398776 -9.50682556 95.52465872 0 96 C0 64.32 0 32.64 0 0 Z " fill="#D3F3FD" transform="translate(160,163)"/>
<path d="M0 0 C4.62 0 9.24 0 14 0 C14 0.33 14 0.66 14 1 C9.71 1 5.42 1 1 1 C1 32.68 1 64.36 1 97 C-28.64160985 97 -56.58108381 92.7810263 -80 73 C-80.33 72.34 -80.66 71.68 -81 71 C-78.8125 70.625 -78.8125 70.625 -76 71 C-74.28859531 72.96185416 -72.62126675 74.96302383 -71 77 C-68.83468832 77.94436349 -68.83468832 77.94436349 -67 78 C-67 78.66 -67 79.32 -67 80 C-65.68 80 -64.36 80 -63 80 C-63 80.66 -63 81.32 -63 82 C-59.535 82.495 -59.535 82.495 -56 83 C-56 83.66 -56 84.32 -56 85 C-51.545 85.99 -51.545 85.99 -47 87 C-47 87.66 -47 88.32 -47 89 C-43.7 89.33 -40.4 89.66 -37 90 C-37 90.33 -37 90.66 -37 91 C-33.81398058 91.48934238 -30.62596849 91.96440081 -27.4375 92.4375 C-26.12362305 92.63956055 -26.12362305 92.63956055 -24.78320312 92.84570312 C-16.80860147 94.01759799 -9.12658633 94.45822758 -1 95 C-0.67 63.65 -0.34 32.3 0 0 Z " fill="#69A8CD" transform="translate(159,162)"/>
<path d="M0 0 C35.31 0 70.62 0 107 0 C107 37.95 107 75.9 107 115 C103.33259647 114.08314912 102.11983288 113.57546876 99.328125 111.34765625 C98.66425781 110.81849609 98.00039063 110.28933594 97.31640625 109.74414062 C96.63449219 109.18919922 95.95257813 108.63425781 95.25 108.0625 C94.55261719 107.51142578 93.85523438 106.96035156 93.13671875 106.39257812 C89.31882863 103.31809323 89.31882863 103.31809323 88 102 C88 101.34 88 100.68 88 100 C89.65 100.66 91.3 101.32 93 102 C93 102.66 93 103.32 93 104 C94.0828125 104.37125 94.0828125 104.37125 95.1875 104.75 C98.25057808 106.11136803 100.41334339 107.88983277 103 110 C104.485 110.495 104.485 110.495 106 111 C105.67 74.7 105.34 38.4 105 1 C90.8925 1.144375 76.785 1.28875 62.25 1.4375 C55.60085449 1.50215454 55.60085449 1.50215454 48.81738281 1.56811523 C44.79793677 1.61143029 44.79793677 1.61143029 40.77850342 1.65589905 C39.00654723 1.67495403 37.23457227 1.69231377 35.46258545 1.70826721 C21.84891 1.82348543 21.84891 1.82348543 8.28094482 2.88392639 C5.19901833 3.04076067 2.77156466 2.30879442 0 1 C0 0.67 0 0.34 0 0 Z " fill="#5F99BE" transform="translate(158,144)"/>
<path d="M0 0 C4.95830458 4.79835927 4.95830458 4.79835927 5.13422108 9.86818314 C5.14369679 11.59400659 5.14752587 13.3198659 5.14717102 15.04571533 C5.15084771 15.99465849 5.1545244 16.94360164 5.1583125 17.92130065 C5.16938082 21.12104175 5.1731985 24.32075041 5.17700195 27.52050781 C5.18326421 29.80660608 5.18991079 32.09270332 5.19691467 34.37879944 C5.21434612 40.6040884 5.22488218 46.82936967 5.2331202 53.05467701 C5.23826559 56.94129636 5.24434151 60.82791329 5.25063133 64.71453094 C5.26750393 75.47357576 5.28213896 86.23261685 5.28938007 96.99167252 C5.29129 99.78432466 5.29321033 102.57697679 5.29516602 105.36962891 C5.29564976 106.06373728 5.2961335 106.75784566 5.2966319 107.47298762 C5.30493239 118.71738079 5.33026908 129.96166759 5.36274669 141.20601431 C5.39581258 152.74806024 5.4134956 164.29003612 5.41702431 175.83213115 C5.41937858 182.3135251 5.42838808 188.79475098 5.45348549 195.27610016 C5.47671204 201.37295045 5.48102114 207.46952133 5.47072411 213.56640434 C5.47022732 215.80534988 5.47658945 218.04430892 5.49028015 220.28321266 C5.50791567 223.33792909 5.50093357 226.39163377 5.48774719 229.4463501 C5.50420106 230.77797459 5.50420106 230.77797459 5.52098733 232.1365006 C5.46292975 237.70041022 4.63287496 240.72384291 1 245 C0.34 245.33 -0.32 245.66 -1 246 C-0.53514049 243.48975863 0.00575876 241.99203939 1.52000046 239.89883137 C3.49192319 236.03648458 3.40935821 232.54121608 3.36749268 228.30619812 C3.37076152 227.43116774 3.37403036 226.55613736 3.37739825 225.6545909 C3.38468115 222.722269 3.37051903 219.79044571 3.35644531 216.8581543 C3.35723622 214.75532445 3.35933357 212.65249475 3.36264038 210.54966736 C3.36777964 204.83412583 3.35422387 199.11876404 3.33711338 193.40325141 C3.32206934 187.41294785 3.32325103 181.42264656 3.32244873 175.43232727 C3.31875375 165.3603713 3.30378258 155.28848336 3.28125 145.21655273 C3.25246787 132.32560962 3.24203424 119.43472157 3.2375679 106.54374981 C3.23357074 95.43084112 3.22106498 84.3179442 3.20722103 73.20504403 C3.20314073 69.65042094 3.20020542 66.09579826 3.19742584 62.54117393 C3.19249026 56.92775573 3.18221654 51.31436988 3.16798782 45.70096779 C3.16350795 43.65167662 3.16063654 41.60238113 3.15958023 39.55308533 C4.72096008 20.07362159 4.72096008 20.07362159 0 3 C0 2.01 0 1.02 0 0 Z " fill="#E7FDFE" transform="translate(279,27)"/>
<path d="M0 0 C2.475 0.99 2.475 0.99 5 2 C3.68 2.33 2.36 2.66 1 3 C1.16265854 4.15737671 1.32531708 5.31475342 1.49290466 6.50720215 C2.00684426 10.63809483 2.13545742 14.7250528 2.11352539 18.88476562 C2.11367142 19.6272052 2.11381744 20.36964478 2.1139679 21.13458252 C2.11327809 23.5585027 2.10552992 25.98234345 2.09765625 28.40625 C2.09578875 30.09875446 2.09436642 31.79125946 2.09336853 33.48376465 C2.08956948 37.91586832 2.07976177 42.34793869 2.06866455 46.7800293 C2.058394 51.31168162 2.05385887 55.84333937 2.04882812 60.375 C2.03813692 69.25001455 2.02109222 78.12500449 2 87 C3.12229004 86.99777939 4.24458008 86.99555878 5.40087891 86.99327087 C15.99400977 86.97297088 26.58713667 86.95799483 37.18028259 86.94818783 C42.62589328 86.94297642 48.07148822 86.93591045 53.51708984 86.92456055 C58.77553461 86.91366971 64.03396426 86.90771004 69.29241943 86.90512276 C71.29539223 86.90327967 73.29836423 86.89968061 75.30133057 86.89426994 C78.11366544 86.88697725 80.9259384 86.88601252 83.73828125 86.88647461 C84.56043625 86.88287933 85.38259125 86.87928406 86.22966003 86.87557983 C91.2395167 86.88444684 96.03998698 87.28538098 101 88 C101 88.33 101 88.66 101 89 C67.67 89 34.34 89 0 89 C0 59.63 0 30.26 0 0 Z " fill="#E8FEFE" transform="translate(159,54)"/>
<path d="M0 0 C2.97 0 5.94 0 9 0 C9 26.4 9 52.8 9 80 C5.70645463 79.17661366 4.08661057 78.61509712 1.35546875 76.890625 C0.67806641 76.46523437 0.00066406 76.03984375 -0.69726562 75.6015625 C-1.39529297 75.15554687 -2.09332031 74.70953125 -2.8125 74.25 C-3.49892578 73.81945312 -4.18535156 73.38890625 -4.89257812 72.9453125 C-9.37581994 70.11200547 -13.75173502 67.17648048 -18 64 C-18 63.67 -18 63.34 -18 63 C-14.52512531 62.60287146 -13.32466501 62.74838462 -10.5 64.9375 C-9.675 65.618125 -8.85 66.29875 -8 67 C-7.154375 67.165 -6.30875 67.33 -5.4375 67.5 C-2.25020364 68.15380438 -1.07273975 69.55712815 1 72 C1.495 72.99 1.495 72.99 2 74 C3.65 74 5.3 74 7 74 C6.505 38.36 6.505 38.36 6 2 C3.03 1.505 3.03 1.505 0 1 C0 0.67 0 0.34 0 0 Z " fill="#4F98C8" transform="translate(256,40)"/>
<path d="M0 0 C0.33 0.66 0.66 1.32 1 2 C14.2 2 27.4 2 41 2 C41 11.57 41 21.14 41 31 C28.13 31 15.26 31 2 31 C2.33 32.98 2.66 34.96 3 37 C2.34 37 1.68 37 1 37 C1 34.36 1 31.72 1 29 C12.88 28.67 24.76 28.34 37 28 C37 20.41 37 12.82 37 5 C18.685 4.505 18.685 4.505 0 4 C0 2.68 0 1.36 0 0 Z " fill="#C8ECF6" transform="translate(101,131)"/>
<path d="M0 0 C1.65 0 3.3 0 5 0 C5 0.66 5 1.32 5 2 C81.89 1.67 158.78 1.34 238 1 C235.32398455 3.67601545 233.29595161 3.24607225 229.65748793 3.27214891 C228.75876902 3.26836958 227.86005011 3.26459026 226.93409729 3.26069641 C225.50750751 3.26643473 225.50750751 3.26643473 224.05209774 3.27228898 C220.84530486 3.28265933 217.63868969 3.2786192 214.43188477 3.2746582 C212.14091831 3.27900244 209.8499533 3.28418462 207.55899048 3.29014587 C201.32148682 3.30357804 195.0840436 3.30410987 188.84652829 3.30158257 C183.64739901 3.30051572 178.4482821 3.30538888 173.24915546 3.310188 C160.28603557 3.32193376 147.32295439 3.32104977 134.35983282 3.31463119 C123.09402979 3.30946139 111.82831322 3.32071738 100.56252731 3.33972941 C89.00354139 3.35908716 77.44460665 3.36707567 65.88560337 3.36360615 C59.39260813 3.36178868 52.89969207 3.36447553 46.40670967 3.37832069 C40.30250516 3.39084888 34.1984743 3.38900258 28.09427261 3.37590981 C25.84923813 3.37353352 23.60419162 3.37631605 21.35917091 3.38453293 C18.30353802 3.39491333 15.24849722 3.38697005 12.19288635 3.3742218 C11.29639816 3.38159609 10.39990997 3.38897037 9.47625548 3.39656812 C8.65988456 3.38936158 7.84351364 3.38215503 7.00240421 3.37473011 C6.29682882 3.37478513 5.59125343 3.37484014 4.86429697 3.37489682 C2.46529886 2.89247541 1.554107 1.83603058 0 0 Z " fill="#E0FDFE" transform="translate(39,272)"/>
<path d="M0 0 C0 0.99 0 1.98 0 3 C-2.82924664 4.59822914 -4.8403554 5.24814621 -8.08418655 5.23047829 C-9.29790432 5.23122634 -9.29790432 5.23122634 -10.53614163 5.2319895 C-11.41940838 5.22227287 -12.30267512 5.21255624 -13.21270752 5.20254517 C-14.15534226 5.20017046 -15.097977 5.19779576 -16.06917644 5.1953491 C-19.23536503 5.18491232 -22.40127636 5.16003291 -25.56738281 5.13525391 C-27.83395004 5.12483037 -30.1005215 5.11529466 -32.36709595 5.10658264 C-38.52789133 5.08037656 -44.68855367 5.04171073 -50.84926701 5.00085878 C-57.28479096 4.96028663 -63.72036613 4.93110262 -70.15594482 4.90072632 C-80.96012682 4.84818914 -91.76424576 4.78860451 -102.56835938 4.72363281 C-113.69659256 4.65673126 -124.82483629 4.59406774 -135.953125 4.53710938 C-136.63908309 4.53359693 -137.32504118 4.53008449 -138.03178588 4.52646561 C-141.47303938 4.50887086 -144.91429329 4.4913595 -148.35554743 4.47388959 C-176.90377408 4.32885347 -205.451906 4.16904879 -234 4 C-234 3.67 -234 3.34 -234 3 C-232.81832874 2.99668985 -231.63665749 2.99337971 -230.41917801 2.98996925 C-202.38019186 2.91098273 -174.34125178 2.82177468 -146.30233915 2.71994839 C-142.85260137 2.70742924 -139.40286328 2.69499651 -135.953125 2.68261719 C-135.26633284 2.68015119 -134.57954069 2.6776852 -133.87193665 2.67514448 C-122.74576015 2.63540102 -111.61957347 2.60266071 -100.49336734 2.57250018 C-89.08019056 2.54140617 -77.66706352 2.50265717 -66.25393367 2.45720994 C-59.84195189 2.43192098 -53.43000084 2.41014677 -47.01798248 2.39665604 C-40.98685487 2.38385747 -34.9558325 2.36182688 -28.92476273 2.33261681 C-26.70757558 2.32352377 -24.49037149 2.3178468 -22.27316666 2.31578636 C-19.2528931 2.31247603 -16.23292017 2.29703182 -13.21270752 2.2784729 C-11.88780741 2.281375 -11.88780741 2.281375 -10.53614163 2.28433573 C-9.72699646 2.27687024 -8.91785128 2.26940475 -8.08418655 2.26171303 C-7.38702003 2.25943471 -6.6898535 2.25715638 -5.97156072 2.25480902 C-3.6564795 1.95560262 -2.02163531 1.13975101 0 0 Z " fill="#E9FEFE" transform="translate(279,274)"/>
<path d="M0 0 C0.66 0.33 1.32 0.66 2 1 C2.36891876 3.49317681 2.60552749 5.86770288 2.75 8.375 C2.80542969 9.06078125 2.86085937 9.7465625 2.91796875 10.453125 C3.1628773 14.26776121 3.18023691 15.72964463 1 19 C-2.1953125 19.15234375 -2.1953125 19.15234375 -6.125 18.9375 C-12.14997422 18.77045823 -17.32619451 18.79106226 -22 23 C-25.87767829 28.81651744 -25.66676309 35.18516162 -25 42 C-24.22578281 45.43001676 -23.15907096 48.68493693 -22 52 C-21.65168938 53.32949938 -21.31325859 54.66180796 -21 56 C-14.66226532 57.53332291 -8.49850211 58.48446121 -2 59 C-4.44950621 61.44950621 -5.24723021 61.32271254 -8.625 61.375 C-14.63939563 61.22746071 -19.19584667 59.75420657 -23.53515625 55.4921875 C-29.0365403 48.59540867 -29.88043585 39.54874808 -29 31 C-27.2901441 24.96521447 -24.14657282 21.39253678 -19 18 C-14.82904156 15.86785774 -11.33553802 15.78812078 -6.6875 15.875 C-3.3771875 15.936875 -3.3771875 15.936875 0 16 C0 10.72 0 5.44 0 0 Z " fill="#62A0C6" transform="translate(236,153)"/>
<path d="M0 0 C0.66 0 1.32 0 2 0 C3.18975795 3.56927385 3.12478155 6.79946972 3.09765625 10.51171875 C3.0962413 11.23994339 3.09482635 11.96816803 3.09336853 12.71846008 C3.08777659 15.04151539 3.07522562 17.36447388 3.0625 19.6875 C3.05748396 21.26367048 3.05292123 22.83984248 3.04882812 24.41601562 C3.0378098 28.27738098 3.02055074 32.13867408 3 36 C0.58394775 36.81436587 -1.83279998 37.62655397 -4.25 38.4375 C-4.93191406 38.66759766 -5.61382812 38.89769531 -6.31640625 39.13476562 C-9.52066613 40.20803714 -12.70046619 41.26015608 -16 42 C-16 42.66 -16 43.32 -16 44 C-17.32 43.67 -18.64 43.34 -20 43 C-13.37021774 38.05168426 -6.49737874 34 2 34 C2 24.43 2 14.86 2 5 C-17.42160501 6.61846708 -33.18225341 11.78417196 -48 25 C-47.6875 23.0625 -47.6875 23.0625 -47 21 C-46.01 20.67 -45.02 20.34 -44 20 C-43.67 19.01 -43.34 18.02 -43 17 C-42.34 17 -41.68 17 -41 17 C-41 16.34 -41 15.68 -41 15 C-40.21625 14.9175 -39.4325 14.835 -38.625 14.75 C-37.75875 14.5025 -36.8925 14.255 -36 14 C-35.55527344 13.01966797 -35.55527344 13.01966797 -35.1015625 12.01953125 C-34 10 -34 10 -32.046875 9.27734375 C-31.28890625 9.16519531 -30.5309375 9.05304688 -29.75 8.9375 C-26.83740852 8.49056786 -24.88120946 7.93689252 -22.25 6.5390625 C-18.2750364 4.65668791 -14.5713519 4.0638366 -10.25 3.4375 C-4.61931331 2.88503861 -4.61931331 2.88503861 0 0 Z " fill="#589DC7" transform="translate(139,65)"/>
<path d="M0 0 C4.95 0 9.9 0 15 0 C15 0.66 15 1.32 15 2 C10.38 2 5.76 2 1 2 C1.00222061 3.16066986 1.00444122 4.32133972 1.00672913 5.5171814 C1.02696876 16.43593686 1.04197612 27.35468854 1.05181217 38.27345848 C1.0570389 43.88739171 1.06413276 49.50130984 1.07543945 55.11523438 C1.08627576 60.52926406 1.09227842 65.94327919 1.09487724 71.35731888 C1.09673014 73.42665461 1.10034819 75.4959895 1.10573006 77.56531906 C1.11295032 80.45551041 1.11399052 83.34564099 1.11352539 86.23583984 C1.11712067 87.09826797 1.12071594 87.96069611 1.12442017 88.84925842 C1.11405216 94.77189568 1.11405216 94.77189568 0 97 C-0.99 96.67 -1.98 96.34 -3 96 C-2.505 95.505 -2.505 95.505 -2 95 C-1.84186866 93.65813322 -1.75006131 92.30836289 -1.68579102 90.95874023 C-1.64413315 90.08419693 -1.60247528 89.20965363 -1.55955505 88.30860901 C-1.52056595 87.33922897 -1.48157684 86.36984894 -1.44140625 85.37109375 C-1.39915421 84.35470322 -1.35690216 83.33831268 -1.31336975 82.29112244 C-0.80148204 68.5522003 -0.89297653 54.80849262 -0.9375 41.0625 C-0.9431159 38.32487124 -0.94716076 35.58724089 -0.95117188 32.84960938 C-0.96203784 26.23305266 -0.97864682 19.61653077 -1 13 C-1.33 13 -1.66 13 -2 13 C-1.85769192 11.58297487 -1.71099254 10.1663904 -1.5625 8.75 C-1.48128906 7.96109375 -1.40007812 7.1721875 -1.31640625 6.359375 C-1 4 -1 4 0 0 Z " fill="#4D99CC" transform="translate(158,160)"/>
<path d="M0 0 C0.90051086 -0.0040535 1.80102173 -0.00810699 2.7288208 -0.01228333 C5.72029049 -0.02183866 8.71164191 -0.02165857 11.703125 -0.01953125 C13.24516602 -0.0206189 13.24516602 -0.0206189 14.81835938 -0.02172852 C42.21641606 -0.01962615 69.58111674 1.06184939 96.953125 2.16796875 C96.953125 2.49796875 96.953125 2.82796875 96.953125 3.16796875 C87.28647263 3.19884569 77.61981801 3.21904272 67.953125 3.23046875 C67.23406982 3.23132477 66.51501465 3.23218079 65.77416992 3.23306274 C38.82327755 3.26137885 11.89500647 2.89738605 -15.046875 2.16796875 C-15.046875 1.83796875 -15.046875 1.50796875 -15.046875 1.16796875 C-9.98519372 0.15025205 -5.13771118 0.00734348 0 0 Z " fill="#5EA0CA" transform="translate(153.046875,36.83203125)"/>
<path d="M0 0 C0.33 0 0.66 0 1 0 C1.20049547 5.01238671 0.79895301 9.60561547 0 14.5625 C-3.05705528 35.11027869 0.21320131 54.35568997 6.48095703 73.90380859 C7 76 7 76 7 80 C7.66 80 8.32 80 9 80 C10.4783226 82.95664519 10.06032783 85.74229737 10 89 C4.84636144 83.84636144 2.6257641 76.6579153 1.4609375 69.625 C0.95463444 66.74164696 0.24457541 63.95586096 -0.5 61.125 C-1.00618155 59.08485711 -1.5063556 57.04321266 -2 55 C-2.21011719 54.14664063 -2.42023437 53.29328125 -2.63671875 52.4140625 C-6.23763881 34.99684631 -4.49863327 17.03054023 0 0 Z " fill="#5C9EC6" transform="translate(48,117)"/>
<path d="M0 0 C18.15 0 36.3 0 55 0 C56.17417134 2.34834269 56.12329052 3.72357478 56.12025452 6.34060669 C56.12162918 7.25208466 56.12300385 8.16356262 56.12442017 9.10266113 C56.11902725 10.60669495 56.11902725 10.60669495 56.11352539 12.14111328 C56.11367142 13.19479095 56.11381744 14.24846863 56.1139679 15.33407593 C56.1132692 18.8295088 56.10547881 22.3248889 56.09765625 25.8203125 C56.09579192 28.23884044 56.09436809 30.65736876 56.09336853 33.07589722 C56.08954456 39.45128415 56.07971529 45.82664841 56.06866455 52.20202637 C56.05844785 58.70369154 56.05387035 65.20536037 56.04882812 71.70703125 C56.03809293 84.47136386 56.0212093 97.23568072 56 110 C55.67 110 55.34 110 55 110 C55 74.69 55 39.38 55 3 C36.85 2.34 18.7 1.68 0 1 C0 0.67 0 0.34 0 0 Z " fill="#4E97C7" transform="translate(208,145)"/>
<path d="M0 0 C2.3125 -0.25 2.3125 -0.25 5 0 C7.42506273 2.34072516 7.97167946 3.70527044 8.29638672 7.08447266 C8.25787598 8.2657373 8.21936523 9.44700195 8.1796875 10.6640625 C8.1384375 11.95054687 8.0971875 13.23703125 8.0546875 14.5625 C8.0247168 15.22894531 7.99474609 15.89539063 7.96386719 16.58203125 C7.87500495 18.62488626 7.81866655 20.66687314 7.765625 22.7109375 C7.48113749 30.16750495 7.48113749 30.16750495 7 33 C1.10148102 36.93234599 -6.13858886 35.1338069 -12.8125 33.875 C-19.00726539 32.45789681 -24.45970589 30.22983196 -30.140625 27.41015625 C-32.47389235 26.25946019 -34.74755837 25.3197103 -37.1875 24.4375 C-40.60442582 22.69107125 -40.79949977 21.51046748 -42 18 C-41.09378906 18.54269531 -40.18757813 19.08539063 -39.25390625 19.64453125 C-32.68876312 23.52274347 -26.45320715 27.12605077 -19 29 C-18.33355469 29.19078125 -17.66710937 29.3815625 -16.98046875 29.578125 C-9.77976887 31.44843666 -2.39607877 31.60021196 5 32 C5 22.1 5 12.2 5 2 C3.35 2 1.7 2 0 2 C0 1.34 0 0.68 0 0 Z " fill="#549BC8" transform="translate(136,193)"/>
<path d="M0 0 C2.5575 0.020625 5.115 0.04125 7.75 0.0625 C7.75 5.3425 7.75 10.6225 7.75 16.0625 C5.605 16.145 3.46 16.2275 1.25 16.3125 C-6.17071668 16.84469281 -10.9682425 18.29891474 -16.625 23.0625 C-18.19179682 24.99086532 -19.2734592 26.7839048 -20.25 29.0625 C-20.25 27.0825 -20.25 25.1025 -20.25 23.0625 C-19.59 23.0625 -18.93 23.0625 -18.25 23.0625 C-18.15203125 22.45664063 -18.0540625 21.85078125 -17.953125 21.2265625 C-16.86168859 17.86736378 -14.80783483 16.91659912 -11.859375 15.16796875 C-6.8938966 13.06433045 -1.57828544 12.60669989 3.75 12.0625 C4.50427297 7.08343741 4.50427297 7.08343741 4.75 2.0625 C3.66460937 2.206875 2.57921875 2.35125 1.4609375 2.5 C0.0156509 2.68769956 -1.42966307 2.87518838 -2.875 3.0625 C-3.58785156 3.15789062 -4.30070312 3.25328125 -5.03515625 3.3515625 C-9.13821609 3.87856101 -13.10245742 4.16716984 -17.25 4.0625 C-17.58 5.0525 -17.91 6.0425 -18.25 7.0625 C-19.24 7.0625 -20.23 7.0625 -21.25 7.0625 C-22.93798827 8.50000191 -22.93798827 8.50000191 -24.25 10.0625 C-24.91 9.7325 -25.57 9.4025 -26.25 9.0625 C-18.51055947 1.90351751 -10.40222586 -0.1185409 0 0 Z " fill="#E7FDFE" transform="translate(228.25,152.9375)"/>
<path d="M0 0 C2.14576286 0.03165353 4.29079245 0.04103097 6.43676758 0.046875 C16.89169071 0.1170325 16.89169071 0.1170325 18.0559082 1.28125 C19.91059916 1.42735092 21.7704704 1.50863428 23.63012695 1.5625 C25.34425781 1.61857422 25.34425781 1.61857422 27.09301758 1.67578125 C28.29764648 1.71058594 29.50227539 1.74539062 30.7434082 1.78125 C33.10159179 1.8504952 35.45967416 1.9232971 37.81762695 2 C39.39483521 2.04543945 39.39483521 2.04543945 41.00390625 2.09179688 C44.07915218 2.28269287 47.02793337 2.72159438 50.0559082 3.28125 C50.0559082 3.61125 50.0559082 3.94125 50.0559082 4.28125 C49.27853806 4.27902939 48.50116791 4.27680878 47.70024109 4.27452087 C40.33087992 4.25438316 32.96153231 4.23920766 25.59215069 4.22943783 C21.8045858 4.22424604 18.01704387 4.21721667 14.22949219 4.20581055 C10.56606131 4.19484877 6.90265235 4.18894536 3.23920631 4.18637276 C1.84996 4.18454223 0.46071472 4.18096839 -0.92852211 4.17551994 C-8.99536536 4.14517566 -16.92597861 4.36112155 -24.9440918 5.28125 C-23.9440918 3.28125 -23.9440918 3.28125 -22.22363281 2.43847656 C-14.83105729 0.01468131 -7.68704329 -0.11469187 0 0 Z " fill="#CCEEF8" transform="translate(157.944091796875,33.71875)"/>
<path d="M0 0 C0.33 0 0.66 0 1 0 C0.44179226 6.61035485 -0.23580913 12.3537137 -4 18 C-4.27701221 20.85579598 -4.46456987 23.63852923 -4.5625 26.5 C-4.88209555 34.64628666 -4.88209555 34.64628666 -6 38 C-6.09627338 40.69848628 -6.13931086 43.36490376 -6.125 46.0625 C-6.12886719 46.79533203 -6.13273437 47.52816406 -6.13671875 48.28320312 C-6.21095757 52.27120188 -6.21095757 52.27120188 -5 56 C-4.7940385 57.72492753 -4.6337837 59.45547891 -4.5 61.1875 C-4.14309274 65.49304791 -3.66391117 69.73199961 -3 74 C-5.22337519 70.66493721 -5.75550146 68.22073899 -6.5625 64.3125 C-6.93568359 62.54326172 -6.93568359 62.54326172 -7.31640625 60.73828125 C-11.12200115 39.92711372 -9.33226927 19.1617496 0 0 Z " fill="#CCEEF8" transform="translate(79,108)"/>
<path d="M0 0 C0.99 0 1.98 0 3 0 C3 9.9 3 19.8 3 30 C-13.94382022 30 -13.94382022 30 -20.5625 28.1875 C-21.20767578 28.02185547 -21.85285156 27.85621094 -22.51757812 27.68554688 C-26.62318147 26.58099369 -30.26167976 25.01028315 -34 23 C-34 22.67 -34 22.34 -34 22 C-28.80790596 21.78807779 -24.873261 22.4087311 -20 24 C-20 24.66 -20 25.32 -20 26 C-19.28972656 25.98839844 -18.57945313 25.97679687 -17.84765625 25.96484375 C-16.92855469 25.95582031 -16.00945312 25.94679687 -15.0625 25.9375 C-14.14597656 25.92589844 -13.22945312 25.91429687 -12.28515625 25.90234375 C-10 26 -10 26 -9 27 C-5.7 27.33 -2.4 27.66 1 28 C0.67 18.76 0.34 9.52 0 0 Z " fill="#CDF0FB" transform="translate(138,195)"/>
<path d="M0 0 C0.66 0.33 1.32 0.66 2 1 C2 1.66 2 2.32 2 3 C1.34 3 0.68 3 0 3 C0 3.99 0 4.98 0 6 C-1.98 6.33 -3.96 6.66 -6 7 C-6.13921875 7.89525391 -6.13921875 7.89525391 -6.28125 8.80859375 C-7.16707822 11.50940696 -8.26761792 12.34704246 -10.5 14.0625 C-13.16652766 16.1225019 -13.89633434 16.68900302 -15 20 C-15.66 20 -16.32 20 -17 20 C-17.226875 20.515625 -17.45375 21.03125 -17.6875 21.5625 C-18.82035874 23.66638051 -20.01311406 25.40759832 -21.4375 27.3125 C-23.43858684 30.07201626 -24.91437749 32.77071078 -26.17578125 35.95703125 C-27.26457768 38.65580154 -28.47773073 41.29091793 -29.6875 43.9375 C-30.12449219 44.89527344 -30.56148437 45.85304687 -31.01171875 46.83984375 C-31.50091797 47.90912109 -31.50091797 47.90912109 -32 49 C-32.66 49 -33.32 49 -34 49 C-31.9658357 37.69908725 -25.55801188 25.65482099 -18 17 C-17.34 17 -16.68 17 -16 17 C-15.75894531 16.4328125 -15.51789063 15.865625 -15.26953125 15.28125 C-11.89108341 9.21043911 -5.52184322 4.09685142 0 0 Z " fill="#5EA0C9" transform="translate(86,58)"/>
<path d="M0 0 C3.79303725 1.00193437 6.71536341 1.81024227 10 4 C10 4.66 10 5.32 10 6 C10.886875 6.28875 11.77375 6.5775 12.6875 6.875 C20.54285714 9.54285714 20.54285714 9.54285714 24 13 C25.97620986 14.04622875 27.9737129 15.05439935 30 16 C30 16.66 30 17.32 30 18 C30.721875 18.268125 31.44375 18.53625 32.1875 18.8125 C35.00947821 20.00400191 37.48340424 21.25236406 40 23 C40.495 24.485 40.495 24.485 41 26 C41.763125 25.938125 42.52625 25.87625 43.3125 25.8125 C46.55538884 26.03874806 46.87472615 26.69761999 49 29 C49.86625 29.309375 50.7325 29.61875 51.625 29.9375 C54 31 54 31 54.8125 33.125 C54.874375 33.74375 54.93625 34.3625 55 35 C49.67599448 33.73905132 45.97231911 30.99631412 41.62109375 27.84765625 C39.23607357 26.16641252 36.83079785 24.65825299 34.3125 23.1875 C29.36139504 20.27417376 24.60588086 17.11043053 19.84277344 13.90332031 C14.68975813 10.43921819 9.47694934 7.07762484 4.21582031 3.7800293 C2.794023 2.87891052 1.39428464 1.94312936 0 1 C0 0.67 0 0.34 0 0 Z " fill="#63A4CB" transform="translate(160,53)"/>
<path d="M0 0 C3.94693009 -0.02501955 7.89382842 -0.04300863 11.84082031 -0.05493164 C13.83139675 -0.06233777 15.82195117 -0.07505474 17.8125 -0.08789062 C19.72675781 -0.09272461 19.72675781 -0.09272461 21.6796875 -0.09765625 C23.42354736 -0.10551147 23.42354736 -0.10551147 25.20263672 -0.11352539 C29.81465091 0.02435468 34.40882402 0.5408824 39 1 C39 28.06 39 55.12 39 83 C36 84 36 84 33.3125 82.6875 C32.549375 82.130625 31.78625 81.57375 31 81 C31 80.34 31 79.68 31 79 C31.8971875 79.4640625 31.8971875 79.4640625 32.8125 79.9375 C35.08956772 81.10209704 35.08956772 81.10209704 38 82 C38 55.6 38 29.2 38 2 C33.05 2 28.1 2 23 2 C18.84970793 1.86024272 14.7090597 1.70361342 10.5625 1.5 C9.53318359 1.45230469 8.50386719 1.40460937 7.44335938 1.35546875 C4.96207683 1.24006026 2.48098662 1.12157578 0 1 C0 0.67 0 0.34 0 0 Z " fill="#B8E1F7" transform="translate(227,38)"/>
<path d="M0 0 C1.25683594 0.47566406 1.25683594 0.47566406 2.5390625 0.9609375 C6.2340989 2.07028251 9.52889627 2.40729602 13.375 2.625 C16.654375 2.810625 16.654375 2.810625 20 3 C20 8.61 20 14.22 20 20 C0.27346939 20.43836735 0.27346939 20.43836735 -7 17 C-7.33 16.34 -7.66 15.68 -8 15 C-2.375 13.875 -2.375 13.875 1 15 C1 15.99 1 16.98 1 18 C6.28 17.67 11.56 17.34 17 17 C17 13.04 17 9.08 17 5 C12.38 5 7.76 5 3 5 C3 4.34 3 3.68 3 3 C2.01 2.67 1.02 2.34 0 2 C0 1.34 0 0.68 0 0 Z " fill="#C3EBF8" transform="translate(216,211)"/>
<path d="M0 0 C29.3634281 -0.43215733 58.66554079 0.8063468 88 2 C88.495 2.99 88.495 2.99 89 4 C81.67165953 3.89221015 74.34341143 3.77951993 67.01524162 3.66066074 C63.61208036 3.60561534 60.20891027 3.55222602 56.80566406 3.50268555 C52.88858668 3.44559143 48.97164573 3.38117881 45.0546875 3.31640625 C43.83884979 3.29969376 42.62301208 3.28298126 41.37033081 3.26576233 C40.22960114 3.24581711 39.08887146 3.22587189 37.91357422 3.20532227 C36.91429901 3.18977798 35.9150238 3.1742337 34.88546753 3.15821838 C31.86200277 2.99243322 28.97944082 2.5278684 26 2 C23.91086971 1.86018156 21.81911029 1.75610778 19.7265625 1.68359375 C18.57285156 1.64169922 17.41914063 1.59980469 16.23046875 1.55664062 C15.04066406 1.51732422 13.85085937 1.47800781 12.625 1.4375 C11.41199219 1.39431641 10.19898438 1.35113281 8.94921875 1.30664062 C5.96624968 1.20094487 2.98320258 1.09884679 0 1 C0 0.67 0 0.34 0 0 Z " fill="#E4FBFE" transform="translate(176,35)"/>
<path d="M0 0 C35.31 0 70.62 0 107 0 C107 0.33 107 0.66 107 1 C105.91164856 1.01030746 104.82329712 1.02061493 103.70196533 1.03123474 C93.40435106 1.12933764 83.10679228 1.23210349 72.80926895 1.33933926 C67.51625748 1.39431203 62.2232403 1.44768845 56.93017578 1.49731445 C51.81431456 1.5453395 46.69851365 1.59769131 41.58272552 1.65294075 C39.6388984 1.67319299 37.69505486 1.69193221 35.75119781 1.70907402 C21.9850833 1.81542171 21.9850833 1.81542171 8.26556396 2.88392639 C5.19024029 3.04148712 2.76504987 2.30571799 0 1 C0 0.67 0 0.34 0 0 Z " fill="#6AA9D0" transform="translate(158,144)"/>
<path d="M0 0 C0.33 0 0.66 0 1 0 C2.10285204 5.23854718 2.56629169 10.66342068 2 16 C0 18 0 18 -2.15478516 18.22705078 C-3.02409668 18.21657715 -3.8934082 18.20610352 -4.7890625 18.1953125 C-5.73007813 18.18886719 -6.67109375 18.18242187 -7.640625 18.17578125 C-8.62546875 18.15902344 -9.6103125 18.14226562 -10.625 18.125 C-11.61757812 18.11597656 -12.61015625 18.10695312 -13.6328125 18.09765625 C-16.08878134 18.07404116 -18.54427168 18.04110799 -21 18 C-21 17.34 -21 16.68 -21 16 C-23.31 15.67 -25.62 15.34 -28 15 C-28 14.34 -28 13.68 -28 13 C-29.0828125 12.9071875 -29.0828125 12.9071875 -30.1875 12.8125 C-33.87188783 11.74812129 -35.46105928 9.8134208 -38 7 C-38.66 6.34 -39.32 5.68 -40 5 C-39.625 2.875 -39.625 2.875 -39 1 C-38.61070312 1.51949219 -38.22140625 2.03898438 -37.8203125 2.57421875 C-32.50802817 9.19621373 -26.34188256 13.18267157 -18 15 C-16.560265 15.14033578 -15.11662851 15.24416857 -13.671875 15.31640625 C-12.47304687 15.37924805 -12.47304687 15.37924805 -11.25 15.44335938 C-10.0125 15.50233398 -10.0125 15.50233398 -8.75 15.5625 C-7.90953125 15.60568359 -7.0690625 15.64886719 -6.203125 15.69335938 C-4.13559329 15.79908543 -2.06781719 15.90001295 0 16 C0 10.72 0 5.44 0 0 Z " fill="#5397C2" transform="translate(236,215)"/>
<path d="M0 0 C0.66 0 1.32 0 2 0 C1.92998779 0.65846924 1.85997559 1.31693848 1.7878418 1.99536133 C1.09988506 8.90716715 0.80797303 15.74312251 0.8125 22.6875 C0.81185547 23.72390625 0.81121094 24.7603125 0.81054688 25.828125 C0.86862977 34.3504701 1.61515796 42.59203045 3 51 C2.01 51 1.02 51 0 51 C-0.33 47.04 -0.66 43.08 -1 39 C-1.33 39 -1.66 39 -2 39 C-2.95316428 25.5638892 -3.70701303 13.06879171 0 0 Z " fill="#E8FDFE" transform="translate(44,125)"/>
<path d="M0 0 C0.33 0.99 0.66 1.98 1 3 C0.01 3.33 -0.98 3.66 -2 4 C-2.103125 5.258125 -2.20625 6.51625 -2.3125 7.8125 C-2.74140871 11.36187498 -3.35947287 12.5795168 -6 15 C-8.24179404 25.04323731 -8.20720104 37.50101915 -4.875 47.3125 C-4 50 -4 50 -5 53 C-10.83132328 42.39759404 -11.78005506 29.86199313 -10 18 C-8.04233381 11.58111376 -4.77202515 4.77202515 0 0 Z " fill="#D7F5FB" transform="translate(201,163)"/>
<path d="M0 0 C-2.85336205 1.90224137 -4.45085413 2.48909726 -7.7109375 3.21875 C-8.62617188 3.42886719 -9.54140625 3.63898437 -10.484375 3.85546875 C-11.43828125 4.06816406 -12.3921875 4.28085937 -13.375 4.5 C-15.25863672 4.92343332 -17.14148133 5.35040891 -19.0234375 5.78125 C-19.85794434 5.96751953 -20.69245117 6.15378906 -21.55224609 6.34570312 C-26.69065614 7.70925414 -26.69065614 7.70925414 -30.75 10.9375 C-33.57632138 13.52829459 -36.23883333 14.24553401 -39.87890625 15.2890625 C-42.2595467 15.98415639 -42.2595467 15.98415639 -45 18 C-47.1875 17.625 -47.1875 17.625 -49 17 C-41.49991088 11.76802688 -33.91047166 7.89575071 -25.375 4.625 C-24.51753174 4.29177734 -23.66006348 3.95855469 -22.77661133 3.61523438 C-6.95206856 -2.251396 -6.95206856 -2.251396 0 0 Z " fill="#60A0C7" transform="translate(137,40)"/>
<path d="M0 0 C0.66 0.99 1.32 1.98 2 3 C-0.36292656 5.52588702 -1.66462511 6.88820837 -5 8 C-6.38528789 10.05788623 -6.38528789 10.05788623 -7.5625 12.5 C-9.79639449 16.89819724 -9.79639449 16.89819724 -12 18 C-12.33 19.65 -12.66 21.3 -13 23 C-1.12 23 10.76 23 23 23 C23 23.33 23 23.66 23 24 C10.13 24 -2.74 24 -16 24 C-14.05350974 14.26754872 -8.1850973 5.70476478 0 0 Z " fill="#63A3C7" transform="translate(118,109)"/>
<path d="M0 0 C12.54 0 25.08 0 38 0 C38 0.33 38 0.66 38 1 C26.45 1 14.9 1 3 1 C5.46029934 8.56484041 5.46029934 8.56484041 9 15 C9 15.66 9 16.32 9 17 C10.32 17 11.64 17 13 17 C16 21.07142857 16 21.07142857 16 24 C16.639375 24.28875 17.27875 24.5775 17.9375 24.875 C20 26 20 26 21 28 C11.47418799 23.61812648 4.87612866 15.19330474 1.125 5.5625 C0 2 0 2 0 0 Z " fill="#66A3C7" transform="translate(103,162)"/>
<path d="M0 0 C0.33 0 0.66 0 1 0 C1.04487549 0.68400879 1.08975098 1.36801758 1.13598633 2.07275391 C2.30850169 19.43999888 3.90582065 34.9181105 10.79296875 51.015625 C12 54 12 54 12 56 C11.34 56 10.68 56 10 56 C10 55.01 10 54.02 10 53 C9.01 52.67 8.02 52.34 7 52 C3.46063329 45.39989981 2.32847411 37.9929601 1.39453125 30.65234375 C1.14503728 28.03111607 1.14503728 28.03111607 0 26 C-0.08510205 24.0406396 -0.10717656 22.07837206 -0.09765625 20.1171875 C-0.09443359 18.95058594 -0.09121094 17.78398437 -0.08789062 16.58203125 C-0.07951172 15.35871094 -0.07113281 14.13539063 -0.0625 12.875 C-0.05798828 11.64394531 -0.05347656 10.41289062 -0.04882812 9.14453125 C-0.0370133 6.09630608 -0.02054028 3.04817686 0 0 Z " fill="#5C9FC7" transform="translate(69,140)"/>
<path d="M0 0 C0.33 0.66 0.66 1.32 1 2 C0.22152461 3.45620691 -0.5999953 4.88942292 -1.4375 6.3125 C-6.53224924 16.9536106 -4.61718131 30.61345289 -3 42 C-3.33 41.34 -3.66 40.68 -4 40 C-4.66 40 -5.32 40 -6 40 C-8.5686787 28.14279565 -10.05111456 15.02368376 -4 3.9375 C-2 1 -2 1 0 0 Z " fill="#5099C8" transform="translate(196,168)"/>
<path d="M0 0 C0.33 0 0.66 0 1 0 C1.02505615 0.6705542 1.0501123 1.3411084 1.07592773 2.03198242 C1.19230801 5.0839959 1.31484348 8.13573258 1.4375 11.1875 C1.47681641 12.24259766 1.51613281 13.29769531 1.55664062 14.38476562 C1.59853516 15.40634766 1.64042969 16.42792969 1.68359375 17.48046875 C1.73858032 18.88655396 1.73858032 18.88655396 1.79467773 20.32104492 C1.99625599 22.95114982 2.42678321 25.42766414 3 28 C-0.70781513 30.55449746 -3.15055274 31.37165964 -7.640625 31.328125 C-8.71183594 31.32296875 -9.78304687 31.3178125 -10.88671875 31.3125 C-12.55154297 31.2815625 -12.55154297 31.2815625 -14.25 31.25 C-15.89162109 31.24226563 -15.89162109 31.24226563 -17.56640625 31.234375 C-23.78178072 31.1748265 -29.83731089 30.80609014 -36 30 C-36 29.67 -36 29.34 -36 29 C-18.675 28.505 -18.675 28.505 -1 28 C-0.67 18.76 -0.34 9.52 0 0 Z " fill="#4D97C8" transform="translate(142,134)"/>
<path d="M0 0 C0.97453125 0.01353516 1.9490625 0.02707031 2.953125 0.04101562 C5.34432863 0.07618038 7.73436975 0.1253933 10.125 0.1875 C10.125 0.8475 10.125 1.5075 10.125 2.1875 C9.08601563 2.22488281 8.04703125 2.26226562 6.9765625 2.30078125 C-7.39844476 2.93065852 -16.76784848 5.66708441 -27.875 15.1875 C-27.5625 13.25 -27.5625 13.25 -26.875 11.1875 C-25.885 10.8575 -24.895 10.5275 -23.875 10.1875 C-23.545 8.5375 -23.215 6.8875 -22.875 5.1875 C-22.00875 4.919375 -21.1425 4.65125 -20.25 4.375 C-16.91474266 3.33616796 -16.91474266 3.33616796 -14.34375 1.625 C-9.50656292 -0.37960005 -5.17553317 -0.13675189 0 0 Z " fill="#5A9FC8" transform="translate(225.875,150.8125)"/>
<path d="M0 0 C2.97 0 5.94 0 9 0 C9 26.4 9 52.8 9 80 C7.68 79.67 6.36 79.34 5 79 C5.99 78.01 5.99 78.01 7 77 C7.21705637 74.59320759 7.31134857 72.29780197 7.31884766 69.88818359 C7.32889328 69.15637375 7.3389389 68.4245639 7.34928894 67.670578 C7.38023236 65.24653932 7.39718674 62.82261162 7.4140625 60.3984375 C7.43276521 58.71976763 7.45233794 57.04110725 7.4727478 55.36245728 C7.52416995 50.94020165 7.56374152 46.51791551 7.60089111 42.09552002 C7.64086774 37.58443593 7.69198892 33.07347987 7.7421875 28.5625 C7.83906607 19.70842314 7.92343249 10.85427416 8 2 C5.36 1.67 2.72 1.34 0 1 C0 0.67 0 0.34 0 0 Z " fill="#5E98BD" transform="translate(256,40)"/>
<path d="M0 0 C0.99 0.33 1.98 0.66 3 1 C2.40832031 2.00675781 1.81664063 3.01351562 1.20703125 4.05078125 C-5.84813992 16.45851142 -9.84123311 28.90055376 -12 43 C-12.33 43 -12.66 43 -13 43 C-12.73998738 34.91360738 -11.82956003 27.21008161 -10.125 19.3125 C-9.96354492 18.53471191 -9.80208984 17.75692383 -9.63574219 16.95556641 C-8.75918704 13.09106452 -8.10034989 10.52615691 -5 8 C-4.34 8 -3.68 8 -3 8 C-2.67 6.35 -2.34 4.7 -2 3 C-1.34 3 -0.68 3 0 3 C0 2.01 0 1.02 0 0 Z " fill="#5B9CC2" transform="translate(83,96)"/>
<path d="M0 0 C2.97 0 5.94 0 9 0 C9 10.56 9 21.12 9 32 C-6 37 -6 37 -10 38 C-10 38.66 -10 39.32 -10 40 C-11.32 39.67 -12.64 39.34 -14 39 C-7.37021774 34.05168426 -0.49737874 30 8 30 C8 20.43 8 10.86 8 1 C5.36 1 2.72 1 0 1 C0 0.67 0 0.34 0 0 Z " fill="#69A5CB" transform="translate(133,69)"/>
<path d="M0 0 C2.0625 0.4375 2.0625 0.4375 4 1 C-26.27676712 16.4764616 -26.27676712 16.4764616 -42 16 C-32.38342526 11.00966166 -21.54870626 9.07067197 -11 7 C-11 6.34 -11 5.68 -11 5 C-10.28972656 4.72285156 -9.57945312 4.44570312 -8.84765625 4.16015625 C-7.92855469 3.79792969 -7.00945312 3.43570313 -6.0625 3.0625 C-5.14597656 2.70285156 -4.22945312 2.34320313 -3.28515625 1.97265625 C-1.07581467 1.2003782 -1.07581467 1.2003782 0 0 Z " fill="#5B9EC4" transform="translate(226,242)"/>
<path d="M0 0 C5.28 0 10.56 0 16 0 C16 5.28 16 10.56 16 16 C13.855 16.0825 11.71 16.165 9.5 16.25 C2.07928332 16.78219281 -2.7182425 18.23641474 -8.375 23 C-9.94179682 24.92836532 -11.0234592 26.7214048 -12 29 C-12 27.02 -12 25.04 -12 23 C-11.34 23 -10.68 23 -10 23 C-9.979375 22.4225 -9.95875 21.845 -9.9375 21.25 C-8.70783441 18.29880258 -6.82952824 17.32868301 -4.08764648 15.82910156 C-0.44703697 14.38324612 3.07645002 14.57795664 6.9375 14.75 C7.71673828 14.76804688 8.49597656 14.78609375 9.29882812 14.8046875 C11.19976131 14.85133617 13.10005169 14.92306171 15 15 C15 10.38 15 5.76 15 1 C10.05 1 5.1 1 0 1 C0 0.67 0 0.34 0 0 Z " fill="#CAF0FC" transform="translate(220,153)"/>
<path d="M0 0 C1.63001953 0.02707031 1.63001953 0.02707031 3.29296875 0.0546875 C4.54013672 0.08949219 4.54013672 0.08949219 5.8125 0.125 C2.88489412 2.07673725 1.64151383 2.46964982 -1.69921875 3 C-7.41824249 4.06342479 -12.60745403 5.98195797 -18 8.125 C-19.37188477 8.65867187 -19.37188477 8.65867187 -20.77148438 9.203125 C-24.91963789 10.82015066 -29.05446319 12.46977117 -33.1875 14.125 C-31.81332677 10.00248031 -29.79349872 9.37903233 -26.07421875 7.390625 C-21.59627738 5.42735977 -16.95525545 4.23003544 -12.2265625 3.01953125 C-1.83406719 -0.03944231 -1.83406719 -0.03944231 0 0 Z " fill="#D8F5FB" transform="translate(127.1875,38.875)"/>
<path d="M0 0 C1.06734375 0.13277344 2.1346875 0.26554687 3.234375 0.40234375 C14.81258403 1.79151875 26.35009296 2.53789513 38 3 C37.67 3.66 37.34 4.32 37 5 C33.54168516 5.02949232 30.08340346 5.0469616 26.625 5.0625 C25.65949219 5.07087891 24.69398438 5.07925781 23.69921875 5.08789062 C6.29260417 5.14630208 6.29260417 5.14630208 0 2 C0 1.34 0 0.68 0 0 Z " fill="#D5F4FB" transform="translate(122,256)"/>
<path d="M0 0 C0.66 0.66 1.32 1.32 2 2 C1.56429687 2.680625 1.12859375 3.36125 0.6796875 4.0625 C-3.42353889 10.74134469 -6.45902325 17.27249707 -9.04541016 24.65429688 C-10.13183289 27.75048683 -11.16669079 30.25003619 -13 33 C-13 29.04 -13 25.08 -13 21 C-12.01 20.67 -11.02 20.34 -10 20 C-9.37162446 18.13398851 -9.37162446 18.13398851 -9 16 C-6.57669233 10.34561543 -3.34111698 5.14860649 0 0 Z " fill="#DBF6FC" transform="translate(62,80)"/>
<path d="M0 0 C-1.47050019 3.64812617 -3.41172271 5.32892795 -6.5625 7.625 C-9.80810703 9.86379366 -9.80810703 9.86379366 -12 13 C-12.99 13 -13.98 13 -15 13 C-15.268125 13.763125 -15.53625 14.52625 -15.8125 15.3125 C-17 18 -17 18 -18.4375 19.375 C-20.84009644 21.87370029 -21.72831951 24.79052066 -23 28 C-23.66 28 -24.32 28 -25 28 C-22.50505502 19.37534247 -10.84317099 0 0 0 Z " fill="#CCEEF8" transform="translate(105,80)"/>
<path d="M0 0 C2.02142332 1.67816275 3.86391413 3.45464014 5.65625 5.375 C4.74875 5.1275 3.84125 4.88 2.90625 4.625 C-1.98867268 3.86423492 -6.07083499 5.80508195 -10.57421875 7.5625 C-13.50062691 8.42102313 -14.52390005 8.22513784 -17.34375 7.375 C-14.93681422 5.97993523 -12.52076201 4.60930617 -10.09375 3.25 C-9.41183594 2.85167969 -8.72992188 2.45335937 -8.02734375 2.04296875 C-2.92580283 -0.78021409 -2.92580283 -0.78021409 0 0 Z " fill="#CFF0F8" transform="translate(238.34375,239.625)"/>
<path d="M0 0 C3.47487469 -0.39712854 4.67533499 -0.25161538 7.5 1.9375 C8.325 2.618125 9.15 3.29875 10 4 C11.2684375 4.2475 11.2684375 4.2475 12.5625 4.5 C15.79442386 5.16295874 16.96266156 6.45332695 19 9 C19.75 11.25 19.75 11.25 20 13 C15.22123889 11.37614914 11.33331323 8.74237077 7.1875 5.9375 C6.49462891 5.47794922 5.80175781 5.01839844 5.08789062 4.54492188 C3.37141668 3.39327778 1.68286015 2.20022856 0 1 C0 0.67 0 0.34 0 0 Z " fill="#59A0CE" transform="translate(238,103)"/>
<path d="M0 0 C2.475 0.99 2.475 0.99 5 2 C5 2.66 5 3.32 5 4 C5.721875 4.2475 6.44375 4.495 7.1875 4.75 C10.25057808 6.11136803 12.41334339 7.88983277 15 10 C15.99 10.33 16.98 10.66 18 11 C18 9.35 18 7.7 18 6 C18.33 6 18.66 6 19 6 C19 8.97 19 11.94 19 15 C15.33259647 14.08314912 14.11983288 13.57546876 11.328125 11.34765625 C10.66425781 10.81849609 10.00039063 10.28933594 9.31640625 9.74414062 C8.63449219 9.18919922 7.95257813 8.63425781 7.25 8.0625 C6.55261719 7.51142578 5.85523438 6.96035156 5.13671875 6.39257812 C1.31882863 3.31809323 1.31882863 3.31809323 0 2 C0 1.34 0 0.68 0 0 Z " fill="#65A1C4" transform="translate(246,244)"/>
<path d="M0 0 C2.48039849 0.80889048 4.95930212 1.62191901 7.4375 2.4375 C8.14455078 2.66759766 8.85160156 2.89769531 9.58007812 3.13476562 C14.88671875 4.88671875 14.88671875 4.88671875 16 6 C16.08758003 7.99964982 16.10696576 10.0023611 16.09765625 12.00390625 C16.09443359 13.21884766 16.09121094 14.43378906 16.08789062 15.68554688 C16.07951172 16.96494141 16.07113281 18.24433594 16.0625 19.5625 C16.05798828 20.84576172 16.05347656 22.12902344 16.04882812 23.45117188 C16.03699545 26.63416022 16.02051068 29.81705762 16 33 C15.34 32.67 14.68 32.34 14 32 C14 23.42 14 14.84 14 6 C11.36 6 8.72 6 6 6 C6 5.34 6 4.68 6 4 C5.071875 3.7834375 5.071875 3.7834375 4.125 3.5625 C2 3 2 3 0 2 C0 1.34 0 0.68 0 0 Z " fill="#F1FEFD" transform="translate(123,190)"/>
<path d="M0 0 C0.66 0.33 1.32 0.66 2 1 C2.36891876 3.49317681 2.60552749 5.86770288 2.75 8.375 C2.80542969 9.06078125 2.86085937 9.7465625 2.91796875 10.453125 C3.1628773 14.26776121 3.18023691 15.72964463 1 19 C-3.8527811 19.32351874 -8.21996348 18.9560073 -13 18 C-13 17.67 -13 17.34 -13 17 C-8.71 17 -4.42 17 0 17 C0 11.39 0 5.78 0 0 Z " fill="#569CC9" transform="translate(236,153)"/>
<path d="M0 0 C1.21509795 2.43019591 1.0348327 3.85834379 0.9375 6.5625 C0.87996932 10.97318525 1.44982063 14.83229977 2.5625 19.08984375 C3 21 3 21 3 24 C0.37613513 20.93882432 0 20.26826873 0 16 C-0.66 16 -1.32 16 -2 16 C-3.16321305 10.9594101 -3.2194696 6.03693964 -2 1 C-1.34 0.67 -0.68 0.34 0 0 Z " fill="#D5F2FB" transform="translate(207,182)"/>
<path d="M0 0 C0.33 0 0.66 0 1 0 C1.05534912 0.71019287 1.11069824 1.42038574 1.16772461 2.15209961 C1.42280682 5.41401979 1.68013822 8.67575892 1.9375 11.9375 C2.02451172 13.05447266 2.11152344 14.17144531 2.20117188 15.32226562 C2.69537842 21.56391121 3.26804273 27.78166031 4 34 C0.83839256 30.83839256 0.09830327 27.32825684 -0.22705078 22.93212891 C-0.21657715 21.87429199 -0.20610352 20.81645508 -0.1953125 19.7265625 C-0.18886719 18.57285156 -0.18242188 17.41914063 -0.17578125 16.23046875 C-0.15902344 15.04066406 -0.14226562 13.85085937 -0.125 12.625 C-0.11597656 11.41199219 -0.10695313 10.19898438 -0.09765625 8.94921875 C-0.07416588 5.96594227 -0.04131682 2.98307406 0 0 Z " fill="#67A5CB" transform="translate(69,140)"/>
<path d="M0 0 C2.93993496 1.46996748 3.41710524 3.62075748 4.8125 6.5625 C7.26649997 11.60917806 9.93092853 16.30612599 13 21 C12.34 21.66 11.68 22.32 11 23 C10.73445313 22.43410156 10.46890625 21.86820313 10.1953125 21.28515625 C9.66550781 20.18494141 9.66550781 20.18494141 9.125 19.0625 C8.77695312 18.33160156 8.42890625 17.60070312 8.0703125 16.84765625 C7.1315023 14.83667541 7.1315023 14.83667541 5 14 C4.375 10.9375 4.375 10.9375 4 8 C3.01 7.67 2.02 7.34 1 7 C0.67 4.69 0.34 2.38 0 0 Z " fill="#CCEEF8" transform="translate(54,200)"/>
<path d="M0 0 C0.99 0.33 1.98 0.66 3 1 C2.24088921 2.48521677 1.46728766 3.96303425 0.6875 5.4375 C0.25824219 6.26121094 -0.17101562 7.08492188 -0.61328125 7.93359375 C-2 10 -2 10 -5 11 C-6.24950052 13.55401848 -6.24950052 13.55401848 -7.1875 16.5625 C-7.53167969 17.57441406 -7.87585938 18.58632812 -8.23046875 19.62890625 C-8.48441406 20.41136719 -8.73835938 21.19382812 -9 22 C-10.15477893 18.53566321 -9.80148365 17.31887201 -8.8125 13.875 C-8.57144531 12.98554687 -8.33039063 12.09609375 -8.08203125 11.1796875 C-7 9 -7 9 -4.88671875 8.1953125 C-4.26410156 8.13085938 -3.64148438 8.06640625 -3 8 C-2.67 6.35 -2.34 4.7 -2 3 C-1.34 3 -0.68 3 0 3 C0 2.01 0 1.02 0 0 Z " fill="#4D9BD0" transform="translate(83,96)"/>
<path d="M0 0 C0.66 0 1.32 0 2 0 C1.34 10.23 0.68 20.46 0 31 C-0.33 31 -0.66 31 -1 31 C-1.02473868 27.06731133 -1.04287835 23.13465287 -1.05493164 19.2019043 C-1.06242729 17.20685232 -1.07513345 15.21182214 -1.08789062 13.21679688 C-1.09111328 11.96318359 -1.09433594 10.70957031 -1.09765625 9.41796875 C-1.10289307 8.26063232 -1.10812988 7.1032959 -1.11352539 5.91088867 C-1 3 -1 3 0 0 Z " fill="#C8EBF6" transform="translate(44,125)"/>
<path d="M0 0 C0.33 0 0.66 0 1 0 C1 3.96 1 7.92 1 12 C-5.435 13.98 -5.435 13.98 -12 16 C-12 15.01 -12 14.02 -12 13 C-11.28972656 12.79503906 -10.57945312 12.59007813 -9.84765625 12.37890625 C-8.92855469 12.10949219 -8.00945312 11.84007813 -7.0625 11.5625 C-6.14597656 11.29566406 -5.22945312 11.02882813 -4.28515625 10.75390625 C-2.0597507 10.20973949 -2.0597507 10.20973949 -1 9 C-0.76807135 7.48530552 -0.58784762 5.96245438 -0.4375 4.4375 C-0.35371094 3.61121094 -0.26992187 2.78492187 -0.18359375 1.93359375 C-0.12300781 1.29550781 -0.06242188 0.65742187 0 0 Z " fill="#DFF9FD" transform="translate(139,87)"/>
<path d="M0 0 C0.92941406 0.54269531 1.85882813 1.08539063 2.81640625 1.64453125 C4.06498532 2.36739282 5.31368999 3.09003747 6.5625 3.8125 C7.17158203 4.16892578 7.78066406 4.52535156 8.40820312 4.89257812 C12.50419646 7.25481767 16.62127791 9.21357155 21 11 C20.67 11.66 20.34 12.32 20 13 C19.28714844 12.67386719 18.57429688 12.34773437 17.83984375 12.01171875 C16.88207031 11.57472656 15.92429687 11.13773438 14.9375 10.6875 C13.9371875 10.22730469 12.936875 9.76710937 11.90625 9.29296875 C9.59931517 8.26663081 7.30488413 7.36770647 4.9375 6.5 C1.42117814 4.70443139 1.22341789 3.60586326 0 0 Z " fill="#5396C1" transform="translate(94,211)"/>
<path d="M0 0 C0.66 0.33 1.32 0.66 2 1 C1.09181415 3.5149762 0.24793276 5.67317955 -1.375 7.8125 C-3.72052786 10.96994135 -5.30742747 14.46020364 -7 18 C-7.33 18 -7.66 18 -8 18 C-8 16.35 -8 14.7 -8 13 C-7.34 12.67 -6.68 12.34 -6 12 C-5.71125 11.113125 -5.4225 10.22625 -5.125 9.3125 C-3.90678511 5.72553394 -2.19291351 3.07007891 0 0 Z " fill="#DAF6FC" transform="translate(108,115)"/>
<path d="M0 0 C1.32 0.33 2.64 0.66 4 1 C-1.33333333 5 -6.66666667 9 -12 13 C-12 12.01 -12 11.02 -12 10 C-11.34 10 -10.68 10 -10 10 C-10 9.01 -10 8.02 -10 7 C-8.35 6.34 -6.7 5.68 -5 5 C-5 4.34 -5 3.68 -5 3 C-3.35 2.67 -1.7 2.34 0 2 C0 1.34 0 0.68 0 0 Z " fill="#D1F2FA" transform="translate(122,103)"/>
<path d="M0 0 C5.1588796 2.79725916 10.17342499 5.658525 15 9 C14.67 9.66 14.34 10.32 14 11 C13.46375 10.71125 12.9275 10.4225 12.375 10.125 C9.64719516 8.83288192 6.87387282 7.91441408 4 7 C4 6.01 4 5.02 4 4 C2.68 3.34 1.36 2.68 0 2 C0 1.34 0 0.68 0 0 Z " fill="#D6F3FB" transform="translate(215,89)"/>
<path d="M0 0 C1.0828125 1.11375 1.0828125 1.11375 2.1875 2.25 C4.69451477 4.70130333 7.23236674 6.85508423 10 9 C11.66666667 10.33333333 13.33333333 11.66666667 15 13 C9.08901573 12.43704912 5.18709354 10.33289978 1.125 6 C0 4 0 4 0 0 Z " fill="#62A1C6" transform="translate(196,216)"/>
<path d="M0 0 C0.33 0 0.66 0 1 0 C1.66 5.94 2.32 11.88 3 18 C1.68 17.34 0.36 16.68 -1 16 C-1.02692484 13.70839681 -1.04636124 11.41670454 -1.0625 9.125 C-1.07410156 7.84882813 -1.08570313 6.57265625 -1.09765625 5.2578125 C-1 2 -1 2 0 0 Z " fill="#539BCA" transform="translate(209,184)"/>
<path d="M0 0 C4.75 0.875 4.75 0.875 7 2 C7 2.66 7 3.32 7 4 C7.5775 3.7525 8.155 3.505 8.75 3.25 C11 3 11 3 13.25 4.75 C15 7 15 7 15 10 C11.13518578 8.61423779 8.03192572 6.81080359 4.6875 4.4375 C3.80449219 3.81746094 2.92148438 3.19742188 2.01171875 2.55859375 C1.34785156 2.04425781 0.68398437 1.52992187 0 1 C0 0.67 0 0.34 0 0 Z " fill="#5A9EC6" transform="translate(215,88)"/>
<path d="M0 0 C2.31 0.33 4.62 0.66 7 1 C7 1.66 7 2.32 7 3 C11.455 3.99 11.455 3.99 16 5 C16 5.66 16 6.32 16 7 C10.37647098 6.50670798 6.01039858 5.65857884 1 3 C0.67 2.01 0.34 1.02 0 0 Z " fill="#579DC5" transform="translate(96,244)"/>
<path d="M0 0 C1.98283479 1.11852219 3.96117623 2.24501325 5.9375 3.375 C7.59072266 4.31472656 7.59072266 4.31472656 9.27734375 5.2734375 C12 7 12 7 13 9 C9.53058454 8.54177532 6.32604951 8.10868317 3 7 C3 6.34 3 5.68 3 5 C2.34 5 1.68 5 1 5 C0.67 3.35 0.34 1.7 0 0 Z " fill="#D2F2FB" transform="translate(82,237)"/>
<path d="M0 0 C-1.56097474 1.1063219 -3.12385327 2.20995785 -4.6875 3.3125 C-5.55761719 3.92738281 -6.42773438 4.54226562 -7.32421875 5.17578125 C-9.83250952 6.88581306 -12.38102199 8.46636423 -15 10 C-14.67 8.68 -14.34 7.36 -14 6 C-13.01 6 -12.02 6 -11 6 C-10.95875 5.401875 -10.9175 4.80375 -10.875 4.1875 C-10 2 -10 2 -7.1875 0.1875 C-3.8787585 -1.0451684 -3.17387501 -1.01205993 0 0 Z " fill="#D9F7FC" transform="translate(94,54)"/>
<path d="M0 0 C1.65322266 0.01740234 1.65322266 0.01740234 3.33984375 0.03515625 C4.44457031 0.04417969 5.54929688 0.05320313 6.6875 0.0625 C7.54214844 0.07410156 8.39679688 0.08570313 9.27734375 0.09765625 C6.35670568 2.0447483 4.93873067 2.50884097 1.58984375 3.09765625 C-2.90478787 3.9292621 -7.29852627 4.95065959 -11.72265625 6.09765625 C-11.72265625 5.43765625 -11.72265625 4.77765625 -11.72265625 4.09765625 C-11.15675781 3.89269531 -10.59085937 3.68773437 -10.0078125 3.4765625 C-9.27433594 3.20714844 -8.54085937 2.93773437 -7.78515625 2.66015625 C-7.05425781 2.39332031 -6.32335937 2.12648437 -5.5703125 1.8515625 C-1.13205835 0.04060468 -1.13205835 0.04060468 0 0 Z " fill="#CBEFF9" transform="translate(123.72265625,38.90234375)"/>
<path d="M0 0 C0.33 0.99 0.66 1.98 1 3 C1.99 3 2.98 3 4 3 C4 4.32 4 5.64 4 7 C4.66 7 5.32 7 6 7 C7.4783226 9.95664519 7.06032783 12.74229737 7 16 C4.82534755 13.82534755 3.76327021 11.86094772 2.375 9.125 C1.92898437 8.26132813 1.48296875 7.39765625 1.0234375 6.5078125 C0 4 0 4 0 0 Z " fill="#6BACD0" transform="translate(51,190)"/>
<path d="M0 0 C0.33 0.99 0.66 1.98 1 3 C0.01 3.33 -0.98 3.66 -2 4 C-2.0825 5.258125 -2.165 6.51625 -2.25 7.8125 C-2.71364236 11.72231986 -2.71364236 11.72231986 -5.0625 14 C-6.0215625 14.495 -6.0215625 14.495 -7 15 C-6.57352731 9.31369743 -4.06314998 4.06314998 0 0 Z " fill="#DEF9FE" transform="translate(201,163)"/>
<path d="M0 0 C0.33 0 0.66 0 1 0 C1.39775461 10.14274258 1.39775461 10.14274258 -1 14 C-3.22409622 16.147049 -5.56112513 18.10237277 -8 20 C-8.66 19.34 -9.32 18.68 -10 18 C-9.071875 17.46375 -8.14375 16.9275 -7.1875 16.375 C-3.18393412 13.39195091 -1.50978034 10.76880696 -0.6015625 5.8359375 C-0.34803837 3.89682047 -0.16796495 1.94839347 0 0 Z " fill="#98B4B9" transform="translate(285,256)"/>
<path d="M0 0 C0 0.99 0 1.98 0 3 C1.98 3 3.96 3 6 3 C6 3.33 6 3.66 6 4 C0.158256 4.35050464 -3.8531808 4.16727335 -9 1 C-5.64919071 -1.10976881 -3.77897651 -1.0497157 0 0 Z " fill="#D2F2F9" transform="translate(217,226)"/>
<path d="M0 0 C2.65506759 1.32753379 3.13084371 2.82858939 4.5 5.4375 C5.87169243 8.04287923 6.90860425 9.90860425 9 12 C9.39764263 13.98821313 9.73775349 15.98944339 10 18 C7.06277008 15.39716241 5.28367414 12.37207149 3.3125 9 C2.68988281 7.948125 2.06726562 6.89625 1.42578125 5.8125 C0 3 0 3 0 0 Z " fill="#5B9CC3" transform="translate(58,204)"/>
<path d="M0 0 C4.37975643 0.72204228 6.01847563 2.8218468 8.73828125 6.14453125 C10.26318449 8.38703601 10.83617701 10.29692069 11 13 C10.34 13 9.68 13 9 13 C8.78085937 12.45730469 8.56171875 11.91460937 8.3359375 11.35546875 C6.55552142 7.33867638 5.5983784 5.36823286 1.75 3 C0.8425 2.67 -0.065 2.34 -1 2 C-0.67 1.34 -0.34 0.68 0 0 Z " fill="#A2BAC2" transform="translate(275,23)"/>
<path d="M0 0 C2.01822917 0.06510417 4.03645833 0.13020833 6.0546875 0.1953125 C6.0546875 0.8553125 6.0546875 1.5153125 6.0546875 2.1953125 C7.7046875 2.1953125 9.3546875 2.1953125 11.0546875 2.1953125 C10.3946875 3.5153125 9.7346875 4.8353125 9.0546875 6.1953125 C8.3946875 5.4940625 7.7346875 4.7928125 7.0546875 4.0703125 C4.34243719 1.95801199 4.34243719 1.95801199 1.94140625 2.375 C-0.04674254 2.89057677 -2.0001224 3.53592603 -3.9453125 4.1953125 C-3.9453125 1.28822619 -2.86537429 0.28768818 0 0 Z " fill="#5DA0C8" transform="translate(233.9453125,237.8046875)"/>
<path d="M0 0 C0.33 0 0.66 0 1 0 C1.06058594 1.0621875 1.12117187 2.124375 1.18359375 3.21875 C1.79270238 13.63715103 1.79270238 13.63715103 3 24 C2.67 23.34 2.34 22.68 2 22 C1.34 22 0.68 22 0 22 C0 14.74 0 7.48 0 0 Z " fill="#77B1D3" transform="translate(190,186)"/>
<path d="M0 0 C-1.88923398 1.01241247 -3.78669944 2.00947425 -5.6875 3 C-7.27111328 3.8353125 -7.27111328 3.8353125 -8.88671875 4.6875 C-11.92226262 5.9672274 -13.76026826 6.28851043 -17 6 C-12.21942846 1.66760704 -6.51974816 -2.13452779 0 0 Z " fill="#CFF1FB" transform="translate(122,74)"/>
<path d="M0 0 C0.66 0.33 1.32 0.66 2 1 C-2.1773372 4.91625363 -5.47510362 6.03533555 -11 7 C-13.24609375 6.54296875 -13.24609375 6.54296875 -15 6 C-12.54524486 4.96971956 -10.08685649 3.95054496 -7.625 2.9375 C-6.57699219 2.49567383 -6.57699219 2.49567383 -5.5078125 2.04492188 C-3.69495092 1.30408902 -1.84876857 0.64603036 0 0 Z " fill="#C9ECF8" transform="translate(219,248)"/>
<path d="M0 0 C4.95 1.65 9.9 3.3 15 5 C15 5.33 15 5.66 15 6 C12.03 6 9.06 6 6 6 C6 5.34 6 4.68 6 4 C5.071875 3.7834375 5.071875 3.7834375 4.125 3.5625 C2 3 2 3 0 2 C0 1.34 0 0.68 0 0 Z " fill="#D8F4FB" transform="translate(123,190)"/>
<path d="M0 0 C0.33 0 0.66 0 1 0 C1.66 5.28 2.32 10.56 3 16 C2.01 16 1.02 16 0 16 C0 10.72 0 5.44 0 0 Z " fill="#CBECF6" transform="translate(44,160)"/>
<path d="M0 0 C2.82620599 -0.51385563 4.49003606 -0.34138082 6.890625 1.265625 C8.6998826 2.78069438 10.42174219 4.24435875 12 6 C12 6.66 12 7.32 12 8 C7.44328408 6.48109469 3.68276708 4.04597738 0 1 C0 0.67 0 0.34 0 0 Z " fill="#66A2C7" transform="translate(238,103)"/>
<path d="M0 0 C0.5775 0.7425 1.155 1.485 1.75 2.25 C3.72253526 4.66087643 5.76044282 6.84042701 8 9 C7.67 9.99 7.34 10.98 7 12 C4.03 8.7 1.06 5.4 -2 2 C-1.34 1.34 -0.68 0.68 0 0 Z " fill="#5FA1C9" transform="translate(70,221)"/>
<path d="M0 0 C2.95929119 2.75520215 5.03681826 5.46627288 7 9 C5.35 9 3.7 9 2 9 C1.67 8.01 1.34 7.02 1 6 C0.34 6 -0.32 6 -1 6 C-0.67 4.02 -0.34 2.04 0 0 Z " fill="#5BA0CE" transform="translate(82,197)"/>
<path d="M0 0 C0.66 0 1.32 0 2 0 C4.71682385 3.73563279 5.86726461 7.55619192 7 12 C6.01 12 5.02 12 4 12 C3.32645501 10.56570999 2.66140299 9.12742943 2 7.6875 C1.62875 6.88699219 1.2575 6.08648437 0.875 5.26171875 C0 3 0 3 0 0 Z " fill="#D9F6FB" transform="translate(76,182)"/>
<path d="M0 0 C0.66 0.33 1.32 0.66 2 1 C2 1.66 2 2.32 2 3 C0.8553125 3.5878125 0.8553125 3.5878125 -0.3125 4.1875 C-3.97639684 6.65850019 -4.52728317 8.89189515 -6 13 C-6.66 13 -7.32 13 -8 13 C-6.76398107 6.81990533 -4.69904339 4.1882778 0 0 Z " fill="#9EBBC3" transform="translate(40,23)"/>
<path d="M0 0 C4.81033104 2.54664585 8.32442148 4.99027798 12 9 C9.69 8.34 7.38 7.68 5 7 C5 6.34 5 5.68 5 5 C4.34 5 3.68 5 3 5 C3 4.34 3 3.68 3 3 C2.01 3 1.02 3 0 3 C0 2.01 0 1.02 0 0 Z " fill="#D7F5FC" transform="translate(244,245)"/>
<path d="M0 0 C2.1446143 2.1446143 2.44564603 3.01739998 3.125 5.875 C3.29257812 6.55304688 3.46015625 7.23109375 3.6328125 7.9296875 C4 10 4 10 4 14 C3.34 14 2.68 14 2 14 C0.02905192 9.07262981 -0.1799928 5.21979128 0 0 Z " fill="#4F98C7" transform="translate(50,179)"/>
<path d="M0 0 C3.59075147 1.33370769 6.84621398 2.80987082 10 5 C10.33 5.99 10.66 6.98 11 8 C6.40378078 6.5129879 3.53027653 4.20187872 0 1 C0 0.67 0 0.34 0 0 Z " fill="#599CC6" transform="translate(190,71)"/>
<path d="M0 0 C-3.08728504 2.05819003 -4.35975238 2.35931563 -7.9375 2.6875 C-8.79214844 2.77386719 -9.64679688 2.86023437 -10.52734375 2.94921875 C-12.90952136 2.99814183 -14.73509263 2.69891573 -17 2 C-14.91952703 1.4678559 -12.83547707 0.94968214 -10.75 0.4375 C-9.58984375 0.14746094 -8.4296875 -0.14257812 -7.234375 -0.44140625 C-4.27909017 -0.95179964 -2.75565899 -1.02996165 0 0 Z " fill="#68A6CD" transform="translate(137,40)"/>
<path d="M0 0 C1.875 0.625 1.875 0.625 4 2 C4.33 3.010625 4.66 4.02125 5 5.0625 C5.33 6.031875 5.66 7.00125 6 8 C8.03243548 8.96877057 8.03243548 8.96877057 10 9 C10 9.66 10 10.32 10 11 C5.32503988 9.7978674 3.53616659 7.45867887 0.91796875 3.65625 C0 2 0 2 0 0 Z " fill="#68A5C6" transform="translate(209,201)"/>
<path d="M0 0 C-1.65 0.33 -3.3 0.66 -5 1 C-5.33 1.99 -5.66 2.98 -6 4 C-6.99 4 -7.98 4 -9 4 C-10.68798827 5.43750191 -10.68798827 5.43750191 -12 7 C-12.66 6.67 -13.32 6.34 -14 6 C-4.9893617 -1.78191489 -4.9893617 -1.78191489 0 0 Z " fill="#C6EBF7" transform="translate(216,156)"/>
<path d="M0 0 C1.23556641 0.01740234 1.23556641 0.01740234 2.49609375 0.03515625 C3.32238281 0.04417969 4.14867187 0.05320313 5 0.0625 C5.63808594 0.07410156 6.27617187 0.08570313 6.93359375 0.09765625 C2.59874007 2.41989929 -0.90592147 3.23236926 -5.81640625 3.16015625 C-6.615625 3.15113281 -7.41484375 3.14210938 -8.23828125 3.1328125 C-8.8415625 3.12121094 -9.44484375 3.10960937 -10.06640625 3.09765625 C-9.73640625 2.43765625 -9.40640625 1.77765625 -9.06640625 1.09765625 C-7.61234375 1.12859375 -7.61234375 1.12859375 -6.12890625 1.16015625 C-2.85118805 1.09326404 -2.90775361 0.13741747 0 0 Z " fill="#4C99CA" transform="translate(185.06640625,254.90234375)"/>
<path d="M0 0 C2.97 0.495 2.97 0.495 6 1 C6 1.99 6 2.98 6 4 C6.99 4 7.98 4 9 4 C9 4.99 9 5.98 9 7 C4.58110387 5.64978174 2.65654657 3.73884332 0 0 Z " fill="#D7F4FC" transform="translate(199,219)"/>
<path d="M0 0 C2.31 0 4.62 0 7 0 C7.33 0.99 7.66 1.98 8 3 C9.65 3.33 11.3 3.66 13 4 C10.44855176 4.93045933 9.25993522 5.08564091 6.640625 4.22265625 C5.85171875 3.83980469 5.0628125 3.45695313 4.25 3.0625 C3.45078125 2.68222656 2.6515625 2.30195313 1.828125 1.91015625 C1.22484375 1.60980469 0.6215625 1.30945313 0 1 C0 0.67 0 0.34 0 0 Z " fill="#BAE0F1" transform="translate(104,217)"/>
<path d="M0 0 C3.63 1.98 7.26 3.96 11 6 C10.01 6.66 9.02 7.32 8 8 C6.66102417 7.04956626 5.32894573 6.08940853 4 5.125 C3.2575 4.59132813 2.515 4.05765625 1.75 3.5078125 C1.1725 3.01023438 0.595 2.51265625 0 2 C0 1.34 0 0.68 0 0 Z " fill="#D4F4FB" transform="translate(165,57)"/>
<path d="M0 0 C1.43931117 0.45261358 2.87638999 0.91232979 4.3125 1.375 C5.11300781 1.63023437 5.91351563 1.88546875 6.73828125 2.1484375 C9 3 9 3 12 5 C7.12335991 5.34833144 4.22949995 4.41685712 0 2 C0 1.34 0 0.68 0 0 Z " fill="#CEEEF8" transform="translate(95,246)"/>
<path d="M0 0 C0.33 0.66 0.66 1.32 1 2 C0.00390625 4.6015625 0.00390625 4.6015625 -1.4375 7.625 C-1.91058594 8.62789062 -2.38367188 9.63078125 -2.87109375 10.6640625 C-3.24363281 11.43492187 -3.61617187 12.20578125 -4 13 C-5.08557659 9.75784173 -4.94015194 7.97678191 -3.6875 4.8125 C-3.42324219 4.11769531 -3.15898437 3.42289063 -2.88671875 2.70703125 C-2 1 -2 1 0 0 Z " fill="#6EABCB" transform="translate(196,168)"/>
<path d="M0 0 C0.99 0.33 1.98 0.66 3 1 C2.01 2.485 2.01 2.485 1 4 C0.34 4 -0.32 4 -1 4 C-1.28875 4.61875 -1.5775 5.2375 -1.875 5.875 C-3 8 -3 8 -5 10 C-4.67 8.35 -4.34 6.7 -4 5 C-3.34 5 -2.68 5 -2 5 C-1.7834375 4.0409375 -1.7834375 4.0409375 -1.5625 3.0625 C-1 1 -1 1 0 0 Z " fill="#D3F3FC" transform="translate(69,71)"/>
<path d="M0 0 C1.48280196 0.78483659 2.9611498 1.57809334 4.4375 2.375 C5.67306641 3.03628906 5.67306641 3.03628906 6.93359375 3.7109375 C9 5 9 5 10 7 C6.62537285 6.45276317 4.91765 5.9451 2 4 C2 3.34 2 2.68 2 2 C1.34 2 0.68 2 0 2 C0 1.34 0 0.68 0 0 Z " fill="#DCF7FD" transform="translate(180,67)"/>
<path d="M0 0 C2.875 -0.1875 2.875 -0.1875 6 0 C8.4294516 3.6441774 8.16179575 5.71241272 8 10 C7.67 10 7.34 10 7 10 C6.9175 9.05125 6.835 8.1025 6.75 7.125 C6.36039986 3.91669817 6.36039986 3.91669817 4.0625 2.75 C3.381875 2.5025 2.70125 2.255 2 2 C1.34 1.34 0.68 0.68 0 0 Z " fill="#4F9CCF" transform="translate(230,211)"/>
<path d="M0 0 C0.33 0 0.66 0 1 0 C1 5.28 1 10.56 1 16 C-0.32 15.67 -1.64 15.34 -3 15 C-2.34 14.34 -1.68 13.68 -1 13 C-0.53513282 9.87803664 -0.53513282 9.87803664 -0.375 6.375 C-0.30023438 5.18648438 -0.22546875 3.99796875 -0.1484375 2.7734375 C-0.09945313 1.85820313 -0.05046875 0.94296875 0 0 Z " fill="#689CC0" transform="translate(264,104)"/>
<path d="M0 0 C1.125 1.75 1.125 1.75 2 4 C1.4375 6.1875 1.4375 6.1875 0 8 C-2.625 8.75 -2.625 8.75 -5 9 C-4.0409375 7.88625 -4.0409375 7.88625 -3.0625 6.75 C-1.21666593 4.2888879 -0.43930826 2.96533074 0 0 Z " fill="#DFF4F5" transform="translate(285,265)"/>
<path d="M0 0 C4.875 3.625 4.875 3.625 6 7 C4.35 6.67 2.7 6.34 1 6 C0.67 4.02 0.34 2.04 0 0 Z " fill="#D3F1FA" transform="translate(67,222)"/>
<path d="M0 0 C-3.28463659 2.18975773 -6.20696275 2.99806563 -10 4 C-10 3.01 -10 2.02 -10 1 C-6.52674819 -0.1577506 -3.63932552 -0.06866652 0 0 Z " fill="#DDF9FD" transform="translate(225,168)"/>
<path d="M0 0 C0.99 0.33 1.98 0.66 3 1 C0.525 5.455 0.525 5.455 -2 10 C-2.33 10 -2.66 10 -3 10 C-2.67 7.69 -2.34 5.38 -2 3 C-1.34 3 -0.68 3 0 3 C0 2.01 0 1.02 0 0 Z " fill="#5D9FC8" transform="translate(83,96)"/>
<path d="M0 0 C2 3 4 6 6 9 C4.35 9 2.7 9 1 9 C0.67 6.03 0.34 3.06 0 0 Z " fill="#DCF0F4" transform="translate(32,265)"/>
<path d="M0 0 C3.057952 1.73559438 5.63379989 3.38472619 8 6 C6.35 6 4.7 6 3 6 C2.67 5.01 2.34 4.02 2 3 C1.34 3 0.68 3 0 3 C0 2.01 0 1.02 0 0 Z " fill="#DEF9FE" transform="translate(256,254)"/>
<path d="M0 0 C4.455 1.98 4.455 1.98 9 4 C9 4.33 9 4.66 9 5 C7.02 5 5.04 5 3 5 C3 4.34 3 3.68 3 3 C2.01 2.67 1.02 2.34 0 2 C0 1.34 0 0.68 0 0 Z " fill="#D9F5FC" transform="translate(216,211)"/>
<path d="M0 0 C-1.49097658 3.7952131 -3.75700849 5.61042731 -7 8 C-7 7.01 -7 6.02 -7 5 C-6.34 5 -5.68 5 -5 5 C-5 4.01 -5 3.02 -5 2 C-2 0 -2 0 0 0 Z " fill="#DEF9FE" transform="translate(117,108)"/>
<path d="M0 0 C0.33 0.99 0.66 1.98 1 3 C-2.26760563 8.63380282 -2.26760563 8.63380282 -5 10 C-4.38545304 6.00544473 -2.29353263 3.25533664 0 0 Z " fill="#E0F5F7" transform="translate(283,263)"/>
<path d="M0 0 C1.98 0.99 1.98 0.99 4 2 C4 2.99 4 3.98 4 5 C4.66 5 5.32 5 6 5 C6 5.66 6 6.32 6 7 C5.01 7 4.02 7 3 7 C3 6.34 3 5.68 3 5 C2.34 5 1.68 5 1 5 C0.67 3.35 0.34 1.7 0 0 Z " fill="#E2F8FD" transform="translate(82,237)"/>
<path d="M0 0 C2.31 1.98 4.62 3.96 7 6 C6.34 6.66 5.68 7.32 5 8 C5 7.34 5 6.68 5 6 C3.68 5.67 2.36 5.34 1 5 C0.67 3.35 0.34 1.7 0 0 Z " fill="#D3EFF9" transform="translate(111,180)"/>
<path d="M0 0 C0.33 0 0.66 0 1 0 C2.09845718 4.32059823 3.17812739 8.61667943 4 13 C2 11.5625 2 11.5625 0 9 C-0.35442445 5.97175582 -0.23347235 3.03514061 0 0 Z " fill="#C2E7F4" transform="translate(47,176)"/>
<path d="M0 0 C0.66 0 1.32 0 2 0 C3.13643966 3.40931897 2.86747764 4.00335456 1.5625 7.1875 C1.13130859 8.26064453 1.13130859 8.26064453 0.69140625 9.35546875 C0.46324219 9.89816406 0.23507813 10.44085938 0 11 C-0.33 11 -0.66 11 -1 11 C-0.67 7.37 -0.34 3.74 0 0 Z " fill="#4B99D1" transform="translate(52,107)"/>
<path d="M0 0 C1.33597652 0.80814651 2.668725 1.62163181 4 2.4375 C5.11375 3.11619141 5.11375 3.11619141 6.25 3.80859375 C6.8275 4.20175781 7.405 4.59492187 8 5 C8 5.33 8 5.66 8 6 C3.50347222 6.36458333 3.50347222 6.36458333 1.1875 4.6875 C0 3 0 3 0 0 Z " fill="#D2F4FC" transform="translate(192,74)"/>
<path d="M0 0 C1.32 0.33 2.64 0.66 4 1 C0.535 3.97 0.535 3.97 -3 7 C-3 6.01 -3 5.02 -3 4 C-2.34 4 -1.68 4 -1 4 C-0.67 2.68 -0.34 1.36 0 0 Z " fill="#D3F1F9" transform="translate(75,64)"/>
<path d="M0 0 C3.465 1.98 3.465 1.98 7 4 C6.01 5.485 6.01 5.485 5 7 C3.29115995 5.37660195 1.62553283 3.70680947 0 2 C0 1.34 0 0.68 0 0 Z " fill="#599DC6" transform="translate(94,211)"/>
<path d="M0 0 C3.465 1.98 3.465 1.98 7 4 C6.67 4.66 6.34 5.32 6 6 C4.02 5.34 2.04 4.68 0 4 C0 2.68 0 1.36 0 0 Z " fill="#D9F6FC" transform="translate(251,112)"/>
<path d="M0 0 C2.97 1.65 5.94 3.3 9 5 C7.68 5.33 6.36 5.66 5 6 C5 5.34 5 4.68 5 4 C3.68 4 2.36 4 1 4 C0.67 2.68 0.34 1.36 0 0 Z " fill="#D7F3FC" transform="translate(238,104)"/>
<path d="M0 0 C0.66 0.33 1.32 0.66 2 1 C2.59355614 3.64860427 2.74209269 6.29197322 3 9 C0.11749016 6.61879622 -0.61038985 4.70129644 -1 1 C-0.67 0.67 -0.34 0.34 0 0 Z " fill="#C6ECF8" transform="translate(194,207)"/>
<path d="M0 0 C2.475 0.495 2.475 0.495 5 1 C5.33 2.65 5.66 4.3 6 6 C3.97945196 4.35830472 1.97956942 2.69088222 0 1 C0 0.67 0 0.34 0 0 Z " fill="#D9F7FE" transform="translate(88,204)"/>
<path d="M0 0 C0.66 0 1.32 0 2 0 C2 0.66 2 1.32 2 2 C3.32 2.66 4.64 3.32 6 4 C5.67 5.32 5.34 6.64 5 8 C4.16382818 6.8562364 3.33113541 5.70992861 2.5 4.5625 C2.0359375 3.92441406 1.571875 3.28632813 1.09375 2.62890625 C0 1 0 1 0 0 Z " fill="#D0F1FB" transform="translate(82,196)"/>
<path d="M0 0 C1 3 1 3 -0.3125 5.6875 C-0.869375 6.450625 -1.42625 7.21375 -2 8 C-2.66 8 -3.32 8 -4 8 C-2.87548273 5.0280615 -1.77706209 2.66559313 0 0 Z " fill="#71AACD" transform="translate(62,84)"/>
</svg>
